<svg xmlns="http://www.w3.org/2000/svg" width="58" height="58" viewBox="0 0 58 58">
  <path id="btc" d="M29,58A29,29,0,1,1,58,29,29,29,0,0,1,29,58ZM42.03,25.411c.569-3.8-2.325-5.842-6.28-7.2l1.283-5.148L33.9,12.28,32.65,17.291c-.823-.207-1.667-.4-2.51-.591l1.26-5.044-3.132-.781-1.283,5.146c-.682-.156-1.352-.308-2-.471l0-.016-4.321-1.078L19.832,17.8s2.325.533,2.277.566a1.667,1.667,0,0,1,1.459,1.823l-1.461,5.863a2.786,2.786,0,0,1,.326.1l-.332-.082-2.048,8.214a1.143,1.143,0,0,1-1.437.743c.033.045-2.277-.567-2.277-.567L14.785,38.05l4.078,1.017c.758.19,1.5.39,2.231.576l-1.3,5.206,3.13.779,1.283-5.147c.856.23,1.686.444,2.5.647l-1.28,5.126,3.132.779,1.3-5.195c5.343,1.011,9.36.6,11.051-4.229,1.363-3.89-.067-6.135-2.878-7.6a4.994,4.994,0,0,0,4-4.6ZM34.871,35.449c-.966,3.891-7.518,1.787-9.642,1.26l1.722-6.9C29.074,30.343,35.884,31.392,34.871,35.449Zm.97-10.094c-.883,3.54-6.335,1.74-8.1,1.3L29.3,20.4c1.767.44,7.464,1.262,6.543,4.954Z" fill="#5183bf" fill-rule="evenodd"/>
</svg>
