<svg xmlns="http://www.w3.org/2000/svg" width="32" height="32" viewBox="0 0 32 32">
  <g id="Group_728" data-name="Group 728" transform="translate(-308 -1678)">
    <circle id="Ellipse_27" data-name="Ellipse 27" cx="16" cy="16" r="16" transform="translate(308 1678)" fill="#5183bf"/>
    <path id="Path_1920" data-name="Path 1920" d="M7.978-4.065q-2.1,0-6.343-.273V-17.187H8.051a7.842,7.842,0,0,1,1.9.219,5.191,5.191,0,0,1,1.513.62,3.079,3.079,0,0,1,1,.98,2.408,2.408,0,0,1,.36,1.3,3.125,3.125,0,0,1-.51,1.877,2.2,2.2,0,0,1-1.531.857,2.776,2.776,0,0,1,1.95.911,3.241,3.241,0,0,1,.674,2.169A3.377,3.377,0,0,1,13-6.63,4.227,4.227,0,0,1,11.86-5.3a5.72,5.72,0,0,1-1.722.9A6.763,6.763,0,0,1,7.978-4.065Zm1.33-4.447a1.529,1.529,0,0,0-.141-.674,1.306,1.306,0,0,0-.4-.483,1.838,1.838,0,0,0-.611-.292,2.881,2.881,0,0,0-.784-.1h-1.6v3q.21.009.41.009H7.614a2.149,2.149,0,0,0,.665-.1,1.583,1.583,0,0,0,.538-.292,1.4,1.4,0,0,0,.36-.46A1.356,1.356,0,0,0,9.309-8.512ZM8.944-13.4q0-1.312-1.64-1.312H5.791v2.588H7.268a2.347,2.347,0,0,0,.665-.091,1.7,1.7,0,0,0,.533-.255,1.2,1.2,0,0,0,.351-.4A1.1,1.1,0,0,0,8.944-13.4Z" transform="translate(316.364 1704.187)" fill="#e0e9f0"/>
  </g>
</svg>
