<svg xmlns="http://www.w3.org/2000/svg" width="60" height="60" viewBox="0 0 60 60">
  <path id="eur" d="M30,60A30,30,0,1,1,60,30,30,30,0,0,1,30,60ZM15,35.632h3.739q3.1,11.239,14.824,11.243A21.847,21.847,0,0,0,41.25,45.66V41.211A16.652,16.652,0,0,1,35,42.6a10.51,10.51,0,0,1-6.144-1.528A11.557,11.557,0,0,1,25.2,35.632h9.293l1.5-3.756H24.4q-.084-1.063-.084-2.409a13.173,13.173,0,0,1,.1-1.866H37.723l1.521-3.756H25.328Q27.333,17.4,34.344,17.4a16.725,16.725,0,0,1,6.906,1.455V14.123a26.254,26.254,0,0,0-7.307-1q-11.7,0-15.038,10.721H16.523L15,27.6h3.169q-.11,1.169-.107,2.344,0,.934.064,1.931H16.519Z" fill="#5183bf" fill-rule="evenodd"/>
</svg>
