<svg xmlns="http://www.w3.org/2000/svg" width="60" height="60" viewBox="0 0 60 60">
  <path id="oil" d="M30,60A30.008,30.008,0,0,1,18.323,2.358,30.008,30.008,0,0,1,41.677,57.643,29.813,29.813,0,0,1,30,60Zm.5-44.626a.6.6,0,0,0-.362.121,30.621,30.621,0,0,0-6.364,6.785c-2.962,4.129-4.438,8.059-4.514,12.016,0,.042,0,.086,0,.13s0,.088,0,.13a9.205,9.205,0,0,0,.766,3.664,9.918,9.918,0,0,0,1.069,1.849,11.6,11.6,0,0,0,9.408,4.557c6.207,0,11.257-4.517,11.257-10.069,0-3.98-1.472-7.991-4.5-12.262A31.887,31.887,0,0,0,30.866,15.5.6.6,0,0,0,30.5,15.375Zm.707,25.5h-.035a.617.617,0,0,1-.183-1.2,8.739,8.739,0,0,0,6.075-5.682.588.588,0,0,1,.563-.389.6.6,0,0,1,.618.607v.1A6.831,6.831,0,0,1,31.2,40.878Z" fill="#5183bf"/>
</svg>
