<svg xmlns="http://www.w3.org/2000/svg" width="60" height="60" viewBox="0 0 60 60">
  <path id="usd" d="M30,60A30,30,0,1,1,60,30,30,30,0,0,1,30,60ZM42.188,35.914c0-4.731-2.955-7.4-9.868-9.068V18.521A15.954,15.954,0,0,1,38.5,21.326l2.548-4.118a17.794,17.794,0,0,0-8.55-3.33V11.25H28.545v2.541C22.86,14.229,19,17.471,19,22.2c0,4.95,3.092,7.359,9.731,9.024v8.587a16.78,16.78,0,0,1-8-3.769l-2.91,3.986A21.553,21.553,0,0,0,28.545,44.37v4.38H32.5V44.413C38.276,43.931,42.188,40.733,42.188,35.914ZM28.725,25.926c-3.5-1.007-4.363-2.19-4.363-4.031,0-1.926,1.5-3.459,4.365-3.679Zm8.1,10.294c0,2.1-1.637,3.549-4.5,3.769V32.059c3.548,1.009,4.5,2.19,4.5,4.162Z" fill="#5183bf" fill-rule="evenodd"/>
</svg>
