<svg xmlns="http://www.w3.org/2000/svg" xmlns:xlink="http://www.w3.org/1999/xlink" width="368.713" height="285.752" viewBox="0 0 368.713 285.752">
  <defs>
    <linearGradient id="linear-gradient" y1="0.5" x2="1" y2="0.5" gradientUnits="objectBoundingBox">
      <stop offset="0" stop-color="#00020d"/>
      <stop offset="1" stop-color="#333"/>
    </linearGradient>
  </defs>
  <g id="Group_8" data-name="Group 8" transform="translate(-835 -2283)">
    <path id="solid" d="M1134.195,2553.621a138.808,138.808,0,0,1-18.8,4.229,148.26,148.26,0,0,1-44.585,0,138.221,138.221,0,0,1-20.763-4.834,125.822,125.822,0,0,1-18.79-7.649,110.81,110.81,0,0,1-16.37-10.13,94.459,94.459,0,0,1-13.507-12.278,79.523,79.523,0,0,1-10.2-14.092,68.462,68.462,0,0,1-6.445-15.573,63.318,63.318,0,0,1,0-33.438,68.471,68.471,0,0,1,6.445-15.573,79.491,79.491,0,0,1,10.2-14.091,94.41,94.41,0,0,1,13.507-12.278,110.807,110.807,0,0,1,16.37-10.13,125.951,125.951,0,0,1,18.79-7.649,138.251,138.251,0,0,1,20.763-4.834,148.26,148.26,0,0,1,44.585,0,138.26,138.26,0,0,1,20.764,4.834,125.982,125.982,0,0,1,18.789,7.649,110.763,110.763,0,0,1,16.37,10.13,94.367,94.367,0,0,1,13.507,12.278,79.541,79.541,0,0,1,10.2,14.091,68.466,68.466,0,0,1,6.445,15.573,63.316,63.316,0,0,1,0,33.438,68.438,68.438,0,0,1-6.445,15.573,79.519,79.519,0,0,1-10.2,14.092,94.465,94.465,0,0,1-13.507,12.278q-3.7,2.773-7.741,5.283a126.286,126.286,0,0,0,21.7,28.233C1175.06,2567.518,1155.046,2563.137,1134.195,2553.621Zm-11.4-103.251a18.49,18.49,0,1,0,7.176-1.449A18.354,18.354,0,0,0,1122.8,2450.37Zm-73.742,0a18.49,18.49,0,1,0,7.176-1.449A18.338,18.338,0,0,0,1049.053,2450.37Z" fill="url(#linear-gradient)"/>
    <path id="glass" d="M886.109,2481.783c-31.055-20.2-51.109-52.176-51.109-88.169C835,2332.524,892.778,2283,964.049,2283s129.05,49.523,129.05,110.614-57.777,110.615-129.05,110.615a147.789,147.789,0,0,1-46.88-7.525c-22.063,10.639-43.738,15.44-54.516,16.742C873.907,2502.192,881.725,2490.94,886.109,2481.783Z" fill="rgba(0,2,13,0.12)"/>
    <circle id="Ellipse_12" data-name="Ellipse 12" cx="22.123" cy="22.123" r="22.123" transform="translate(893.994 2340.151)" fill="#fff" opacity="0.75"/>
    <circle id="Ellipse_13" data-name="Ellipse 13" cx="22.123" cy="22.123" r="22.123" transform="translate(989.859 2340.151)" fill="#fff" opacity="0.75"/>
  </g>
</svg>
