<svg xmlns="http://www.w3.org/2000/svg" width="28" height="28" viewBox="0 0 28 28">
  <g id="facebook_v2" data-name="facebook v2" transform="translate(7016 -2565)">
    <g id="Combined-Shape-path" transform="translate(-7016 2565)" fill="none">
      <path d="M0,14A14,14,0,1,1,14,28,14,14,0,0,1,0,14Z" stroke="none"/>
      <path d="M 14 1.5 C 10.66113090515137 1.5 7.522100448608398 2.800230026245117 5.161159515380859 5.161159515380859 C 2.800230026245117 7.522100448608398 1.5 10.66113090515137 1.5 14 C 1.5 17.33887100219727 2.800230026245117 20.4778995513916 5.161159515380859 22.83884048461914 C 7.522100448608398 25.19976997375488 10.66113090515137 26.5 14 26.5 C 17.33887100219727 26.5 20.4778995513916 25.19976997375488 22.83884048461914 22.83884048461914 C 25.19976997375488 20.4778995513916 26.5 17.33887100219727 26.5 14 C 26.5 10.66113090515137 25.19976997375488 7.522100448608398 22.83884048461914 5.161159515380859 C 20.4778995513916 2.800230026245117 17.33887100219727 1.5 14 1.5 M 14 0 C 21.73199081420898 0 28 6.268009185791016 28 14 C 28 21.73199081420898 21.73199081420898 28 14 28 C 6.268009185791016 28 0 21.73199081420898 0 14 C 0 6.268009185791016 6.268009185791016 0 14 0 Z" stroke="none" fill="#fff"/>
    </g>
    <path id="Icon_awesome-facebook-f" data-name="Icon awesome-facebook-f" d="M8.616,7.875l.389-2.534H6.574V3.7A1.267,1.267,0,0,1,8,2.328H9.108V.171A13.478,13.478,0,0,0,7.146,0,3.093,3.093,0,0,0,3.835,3.41V5.341H1.609V7.875H3.835V14H6.574V7.875Z" transform="translate(-7007.609 2572)" fill="#fff"/>
  </g>
</svg>
