<svg id="instagram" xmlns="http://www.w3.org/2000/svg" width="28" height="28" viewBox="0 0 28 28">
  <path id="Vector" d="M0,14A14,14,0,1,1,14,28,14,14,0,0,1,0,14ZM14,6.533c-2.028,0-2.282.009-3.079.045a5.479,5.479,0,0,0-1.812.347A3.819,3.819,0,0,0,6.925,9.109a5.454,5.454,0,0,0-.347,1.812c-.036.8-.045,1.051-.045,3.079s.009,2.282.045,3.078a5.487,5.487,0,0,0,.347,1.812,3.821,3.821,0,0,0,2.183,2.184,5.484,5.484,0,0,0,1.813.347c.8.036,1.051.045,3.078.045s2.282-.009,3.078-.045a5.487,5.487,0,0,0,1.813-.347,3.826,3.826,0,0,0,2.184-2.184,5.534,5.534,0,0,0,.347-1.812c.036-.8.045-1.05.045-3.078s-.009-2.282-.045-3.079a5.532,5.532,0,0,0-.347-1.812,3.82,3.82,0,0,0-2.184-2.184,5.5,5.5,0,0,0-1.814-.347c-.8-.036-1.05-.045-3.078-.045Z" fill="#fff"/>
  <path id="Vector-2" data-name="Vector" d="M13.331,7.879H14c1.994,0,2.23.007,3.017.043a4.134,4.134,0,0,1,1.386.257A2.474,2.474,0,0,1,19.821,9.6a4.126,4.126,0,0,1,.257,1.386c.036.787.044,1.024.044,3.016s-.008,2.229-.044,3.016a4.13,4.13,0,0,1-.257,1.386A2.476,2.476,0,0,1,18.4,19.817a4.119,4.119,0,0,1-1.386.257c-.787.036-1.024.044-3.017.044s-2.23-.008-3.017-.044A4.142,4.142,0,0,1,9.6,19.817,2.474,2.474,0,0,1,8.18,18.4a4.126,4.126,0,0,1-.257-1.386C7.887,16.227,7.88,15.99,7.88,14s.007-2.229.043-3.016A4.134,4.134,0,0,1,8.18,9.594,2.474,2.474,0,0,1,9.6,8.176a4.125,4.125,0,0,1,1.386-.257c.689-.031.956-.04,2.347-.042Zm4.656,1.24a.9.9,0,1,0,.9.9A.9.9,0,0,0,17.986,9.119ZM14,10.166A3.834,3.834,0,1,0,17.835,14,3.835,3.835,0,0,0,14,10.166Z" fill="#fff"/>
  <path id="Vector-3" data-name="Vector" d="M14,11.511A2.489,2.489,0,1,1,11.512,14,2.489,2.489,0,0,1,14,11.511Z" fill="#fff"/>
</svg>
