<svg xmlns="http://www.w3.org/2000/svg" width="28" height="28" viewBox="0 0 28 28">
  <g id="instagram_v2" data-name="instagram v2" transform="translate(6979 -2565)">
    <g id="Combined-Shape-path" transform="translate(-6979 2565)" fill="none">
      <path d="M0,14A14,14,0,1,1,14,28,14,14,0,0,1,0,14Z" stroke="none"/>
      <path d="M 14 1.5 C 10.66113090515137 1.5 7.522100448608398 2.800230026245117 5.161159515380859 5.161159515380859 C 2.800230026245117 7.522100448608398 1.5 10.66113090515137 1.5 14 C 1.5 17.33887100219727 2.800230026245117 20.4778995513916 5.161159515380859 22.83884048461914 C 7.522100448608398 25.19976997375488 10.66113090515137 26.5 14 26.5 C 17.33887100219727 26.5 20.4778995513916 25.19976997375488 22.83884048461914 22.83884048461914 C 25.19976997375488 20.4778995513916 26.5 17.33887100219727 26.5 14 C 26.5 10.66113090515137 25.19976997375488 7.522100448608398 22.83884048461914 5.161159515380859 C 20.4778995513916 2.800230026245117 17.33887100219727 1.5 14 1.5 M 14 0 C 21.73199081420898 0 28 6.268009185791016 28 14 C 28 21.73199081420898 21.73199081420898 28 14 28 C 6.268009185791016 28 0 21.73199081420898 0 14 C 0 6.268009185791016 6.268009185791016 0 14 0 Z" stroke="none" fill="#fff"/>
    </g>
    <path id="Icon_awesome-instagram" data-name="Icon awesome-instagram" d="M7.126,5.711a3.655,3.655,0,1,0,3.655,3.655A3.65,3.65,0,0,0,7.126,5.711Zm0,6.032A2.376,2.376,0,1,1,9.5,9.366a2.381,2.381,0,0,1-2.376,2.376Zm4.657-6.181a.853.853,0,1,1-.853-.853A.851.851,0,0,1,11.784,5.561Zm2.421.865a4.219,4.219,0,0,0-1.152-2.987,4.247,4.247,0,0,0-2.987-1.152c-1.177-.067-4.705-.067-5.882,0A4.241,4.241,0,0,0,1.2,3.436,4.233,4.233,0,0,0,.045,6.423c-.067,1.177-.067,4.705,0,5.882A4.219,4.219,0,0,0,1.2,15.293a4.252,4.252,0,0,0,2.987,1.152c1.177.067,4.705.067,5.882,0a4.219,4.219,0,0,0,2.987-1.152A4.247,4.247,0,0,0,14.2,12.306c.067-1.177.067-4.7,0-5.879Zm-1.521,7.142a2.406,2.406,0,0,1-1.355,1.355,15.712,15.712,0,0,1-4.2.286,15.835,15.835,0,0,1-4.2-.286,2.406,2.406,0,0,1-1.355-1.355,15.712,15.712,0,0,1-.286-4.2,15.835,15.835,0,0,1,.286-4.2A2.406,2.406,0,0,1,2.924,3.808a15.712,15.712,0,0,1,4.2-.286,15.835,15.835,0,0,1,4.2.286,2.406,2.406,0,0,1,1.355,1.355,15.712,15.712,0,0,1,.286,4.2A15.7,15.7,0,0,1,12.684,13.569Z" transform="translate(-6972.123 2569.634)" fill="#fff"/>
  </g>
</svg>
