<svg xmlns="http://www.w3.org/2000/svg" width="28" height="28" viewBox="0 0 28 28">
  <g id="linkedin_v2" data-name="linkedin v2" transform="translate(6942 -2565)">
    <g id="Combined-Shape-path" transform="translate(-6942 2565)" fill="none">
      <path d="M0,14A14,14,0,1,1,14,28,14,14,0,0,1,0,14Z" stroke="none"/>
      <path d="M 14 1.5 C 10.66113090515137 1.5 7.522100448608398 2.800230026245117 5.161159515380859 5.161159515380859 C 2.800230026245117 7.522100448608398 1.5 10.66113090515137 1.5 14 C 1.5 17.33887100219727 2.800230026245117 20.4778995513916 5.161159515380859 22.83884048461914 C 7.522100448608398 25.19976997375488 10.66113090515137 26.5 14 26.5 C 17.33887100219727 26.5 20.4778995513916 25.19976997375488 22.83884048461914 22.83884048461914 C 25.19976997375488 20.4778995513916 26.5 17.33887100219727 26.5 14 C 26.5 10.66113090515137 25.19976997375488 7.522100448608398 22.83884048461914 5.161159515380859 C 20.4778995513916 2.800230026245117 17.33887100219727 1.5 14 1.5 M 14 0 C 21.73199081420898 0 28 6.268009185791016 28 14 C 28 21.73199081420898 21.73199081420898 28 14 28 C 6.268009185791016 28 0 21.73199081420898 0 14 C 0 6.268009185791016 6.268009185791016 0 14 0 Z" stroke="none" fill="#fff"/>
    </g>
    <g id="Group_170" data-name="Group 170">
      <path id="Combined-Shape-path-2" data-name="Combined-Shape-path" d="M3.173,0H0V9.533H3.173Z" transform="translate(-6935.279 2576.595)" fill="#fff"/>
      <path id="Combined-Shape-path-3" data-name="Combined-Shape-path" d="M3.569,1.647A1.648,1.648,0,0,0,1.795,0a1.652,1.652,0,1,0-.041,3.294h.02A1.655,1.655,0,0,0,3.569,1.647Z" transform="translate(-6935.467 2572)" fill="#fff"/>
      <path id="Combined-Shape-path-4" data-name="Combined-Shape-path" d="M9.686,4.291C9.686,1.363,8.121,0,6.033,0a3.15,3.15,0,0,0-2.86,1.574V.224H0c.042.894,0,9.533,0,9.533H3.173V4.433a2.167,2.167,0,0,1,.1-.773A1.736,1.736,0,0,1,4.905,2.5c1.149,0,1.608.874,1.608,2.155v5.1H9.686Z" transform="translate(-6930.35 2576.372)" fill="#fff"/>
    </g>
  </g>
</svg>
