<svg xmlns="http://www.w3.org/2000/svg" width="28" height="28" viewBox="0 0 28 28">
  <path id="linkedin" d="M14,28A14,14,0,0,1,4.1,4.1,14,14,0,0,1,23.9,23.9,13.908,13.908,0,0,1,14,28Zm2.555-14.127c1.329,0,1.607,1.172,1.607,2.156v5.1h3.172V15.663a4.634,4.634,0,0,0-1.044-3.244,3.437,3.437,0,0,0-2.61-1.047,3.169,3.169,0,0,0-2.859,1.574V11.6H11.65c.042.879,0,9.446,0,9.533h3.173V15.8a2.1,2.1,0,0,1,.1-.773A1.736,1.736,0,0,1,16.556,13.873ZM6.721,11.6v9.533H9.894V11.6ZM8.329,7a1.652,1.652,0,1,0-.041,3.294h.02A1.652,1.652,0,1,0,8.329,7Z" fill="#fff"/>
</svg>
