<svg xmlns="http://www.w3.org/2000/svg" width="28" height="28" viewBox="0 0 28 28">
  <path id="pinterest" d="M14,28A14,14,0,0,1,4.1,4.1,14,14,0,0,1,23.9,23.9,13.908,13.908,0,0,1,14,28ZM13.551,9.431a1.939,1.939,0,0,0-1.4.644,2.688,2.688,0,0,0-.674,1.9,4.294,4.294,0,0,0,.355,1.877c-.125.536-.281,1.136-.446,1.771a26.773,26.773,0,0,0-1.109,5.969,14.6,14.6,0,0,0,.111,1.556c.019.177.038.354.055.532.021.024.037.043.05.059.029.035.04.049.061.049a.206.206,0,0,0,.064-.021l.081-.032a11.072,11.072,0,0,0,2.35-5.212c.085-.349.182-.744.293-1.185a2.994,2.994,0,0,0,2.565,1.333c3.914,0,5.7-3.777,5.7-7.286,0-3.8-3.388-6.074-6.663-6.074-3.712,0-7.552,2.48-7.552,6.629,0,2.683,1.533,4.087,2.354,4.087.367,0,.578-1.03.578-1.31a1.185,1.185,0,0,0-.222-.476A3.687,3.687,0,0,1,9.447,12.2a5.017,5.017,0,0,1,1.5-3.659,5.277,5.277,0,0,1,3.7-1.427,4.662,4.662,0,0,1,3.139,1.045,3.877,3.877,0,0,1,1.248,3.019,9.456,9.456,0,0,1-.714,3.564,3.015,3.015,0,0,1-2.63,2.089,1.65,1.65,0,0,1-1.71-1.622,6.409,6.409,0,0,1,.483-2.065,6.559,6.559,0,0,0,.495-2.132,1.66,1.66,0,0,0-.423-1.193A1.356,1.356,0,0,0,13.551,9.431Z" fill="#fff"/>
</svg>
