<svg xmlns="http://www.w3.org/2000/svg" width="27.954" height="27.518" viewBox="0 0 27.954 27.518">
  <g id="pinterest_v2" data-name="pinterest v2" transform="translate(6905 -2565.18)">
    <path id="Combined-Shape" d="M13.977,27.518A13.869,13.869,0,0,1,0,13.758,13.868,13.868,0,0,1,13.977,0,13.869,13.869,0,0,1,27.953,13.758,13.87,13.87,0,0,1,13.977,27.518ZM1.293,13.758A12.478,12.478,0,0,0,9.343,25.37a11.787,11.787,0,0,1,.045-3.578c.229-.973,1.485-6.2,1.485-6.2a4.446,4.446,0,0,1-.379-1.851c0-1.735,1.02-3.028,2.292-3.028a1.576,1.576,0,0,1,1.6,1.757,24.734,24.734,0,0,1-1.049,4.151,1.819,1.819,0,0,0,1.876,2.253c2.252,0,3.982-2.337,3.982-5.711a4.963,4.963,0,0,0-5.291-5.072A5.442,5.442,0,0,0,8.187,13.5a4.8,4.8,0,0,0,.942,2.846.372.372,0,0,1,.088.358c-.1.393-.31,1.241-.352,1.413-.055.228-.184.277-.425.168-1.581-.725-2.569-3-2.569-4.831,0-3.933,2.9-7.547,8.369-7.547,4.394,0,7.809,3.083,7.809,7.2,0,4.3-2.753,7.756-6.572,7.756a3.408,3.408,0,0,1-2.9-1.432s-.635,2.38-.789,2.964A13.889,13.889,0,0,1,10.21,25.67a12.79,12.79,0,0,0,3.75.557A12.569,12.569,0,0,0,26.627,13.758,12.568,12.568,0,0,0,13.96,1.29,12.568,12.568,0,0,0,1.293,13.758Z" transform="translate(-6905 2565.18)" fill="#fff"/>
  </g>
</svg>
