<svg xmlns="http://www.w3.org/2000/svg" width="94" height="94" viewBox="0 0 94 94">
  <g id="redeem" transform="translate(-18313 -435)">
    <g id="Group_65" data-name="Group 65" transform="translate(18313.104 435)">
      <circle id="Ellipse_1" data-name="Ellipse 1" cx="47" cy="47" r="47" transform="translate(-0.103)" fill="#fff"/>
    </g>
    <g id="Group_183" data-name="Group 183" transform="translate(-2.843 -1.179)">
      <g id="Group_182" data-name="Group 182" transform="translate(18334.844 463.179)">
        <g id="Group_173" data-name="Group 173" transform="translate(6.484 3.125)">
          <g id="Group_172" data-name="Group 172">
            <path id="Path_41" data-name="Path 41" d="M83.781,40a.781.781,0,1,0,.781.781A.782.782,0,0,0,83.781,40Z" transform="translate(-83 -40)" fill="#ebedf0"/>
          </g>
        </g>
        <g id="Group_175" data-name="Group 175" transform="translate(3.125 3.141)">
          <g id="Group_174" data-name="Group 174">
            <path id="Path_42" data-name="Path 42" d="M47.3,40.2a.781.781,0,0,0-.064,1.561,10.537,10.537,0,0,1,3.989.771,11.639,11.639,0,0,1-4.738.777,11.078,11.078,0,0,1-4.815-.822.781.781,0,0,0-1.227-.945,1.373,1.373,0,0,0-.442.986c0,2.278,5.821,2.344,6.484,2.344s6.484-.066,6.484-2.344C52.969,40.584,48.627,40.255,47.3,40.2Z" transform="translate(-40 -40.2)" fill="#ebedf0"/>
          </g>
        </g>
        <g id="Group_177" data-name="Group 177">
          <g id="Group_176" data-name="Group 176">
            <path id="Path_43" data-name="Path 43" d="M9.609,0C3.592,0,0,2.044,0,5.469V34.531C0,37.956,3.592,40,9.609,40s9.609-2.044,9.609-5.469V5.469C19.219,2.044,15.626,0,9.609,0Zm8.047,34.531c0,2.446-3.008,3.906-8.047,3.906s-8.047-1.46-8.047-3.906V33.018c1.6,1.375,4.371,2.138,8.047,2.138s6.447-.763,8.047-2.138Zm0-4.844c0,2.446-3.008,3.906-8.047,3.906s-8.047-1.46-8.047-3.906V28.175c1.6,1.375,4.371,2.138,8.047,2.138s6.447-.763,8.047-2.138Zm0-4.844c0,2.446-3.008,3.906-8.047,3.906s-8.047-1.46-8.047-3.906V23.331c1.6,1.375,4.371,2.138,8.047,2.138s6.447-.763,8.047-2.138Zm0-4.844c0,2.446-3.008,3.906-8.047,3.906S1.562,22.446,1.562,20V18.487c1.6,1.375,4.371,2.138,8.047,2.138s6.447-.763,8.047-2.138Zm0-4.844c0,2.446-3.008,3.906-8.047,3.906S1.562,17.6,1.562,15.156V13.643c1.6,1.375,4.371,2.138,8.047,2.138,3.64,0,6.433-.813,8.047-2.244Zm0-5a3.231,3.231,0,0,1-1.961,2.854,12.975,12.975,0,0,1-6.085,1.208c-5.039,0-8.047-1.46-8.047-3.906V8.8c1.6,1.375,4.371,2.138,8.047,2.138s6.447-.763,8.047-2.138ZM9.609,9.375c-5.039,0-8.047-1.46-8.047-3.906S4.571,1.562,9.609,1.562s8.047,1.46,8.047,3.906S14.648,9.375,9.609,9.375Z" fill="#ebedf0"/>
          </g>
        </g>
      </g>
      <g id="coins" transform="translate(18355.797 467.665)">
        <g id="Group_171" data-name="Group 171" transform="translate(24.208 16.092)">
          <g id="Group_170" data-name="Group 170">
            <path id="Path_40" data-name="Path 40" d="M349.694,232a.694.694,0,1,0,.694.694A.694.694,0,0,0,349.694,232Z" transform="translate(-349 -232)" fill="#ebedf0"/>
          </g>
        </g>
        <g id="Group_173-2" data-name="Group 173" transform="translate(5.757 2.775)">
          <g id="Group_172-2" data-name="Group 172">
            <path id="Path_41-2" data-name="Path 41" d="M83.694,40a.694.694,0,1,0,.694.694A.694.694,0,0,0,83.694,40Z" transform="translate(-83 -40)" fill="#ebedf0"/>
          </g>
        </g>
        <g id="Group_175-2" data-name="Group 175" transform="translate(2.775 2.788)">
          <g id="Group_174-2" data-name="Group 174">
            <path id="Path_42-2" data-name="Path 42" d="M46.478,40.2a.694.694,0,0,0-.057,1.386,9.356,9.356,0,0,1,3.542.684,10.333,10.333,0,0,1-4.206.69,9.836,9.836,0,0,1-4.275-.73.694.694,0,0,0-1.09-.839,1.219,1.219,0,0,0-.392.875c0,2.022,5.168,2.081,5.757,2.081s5.757-.058,5.757-2.081C51.514,40.541,47.66,40.249,46.478,40.2Z" transform="translate(-40 -40.2)" fill="#ebedf0"/>
          </g>
        </g>
        <g id="Group_177-2" data-name="Group 177">
          <g id="Group_176-2" data-name="Group 176">
            <path id="Path_43-2" data-name="Path 43" d="M8.532,0C3.189,0,0,1.815,0,4.855v25.8c0,3.04,3.189,4.855,8.532,4.855s8.532-1.815,8.532-4.855V4.855C17.063,1.815,13.874,0,8.532,0Zm7.144,30.658c0,2.172-2.671,3.468-7.144,3.468s-7.144-1.3-7.144-3.468V29.315c1.42,1.221,3.88,1.9,7.144,1.9s5.724-.678,7.144-1.9Zm0-4.3c0,2.172-2.671,3.468-7.144,3.468s-7.144-1.3-7.144-3.468V25.015c1.42,1.221,3.88,1.9,7.144,1.9s5.724-.678,7.144-1.9Zm0-4.3c0,2.172-2.671,3.468-7.144,3.468s-7.144-1.3-7.144-3.468V20.714c1.42,1.221,3.88,1.9,7.144,1.9s5.724-.678,7.144-1.9Zm0-4.3c0,2.172-2.671,3.468-7.144,3.468s-7.144-1.3-7.144-3.468V16.414c1.42,1.221,3.88,1.9,7.144,1.9s5.724-.678,7.144-1.9Zm0-4.3c0,2.172-2.671,3.468-7.144,3.468s-7.144-1.3-7.144-3.468V12.113c1.42,1.221,3.88,1.9,7.144,1.9,3.232,0,5.712-.722,7.144-1.993Zm0-4.439a2.869,2.869,0,0,1-1.741,2.534,11.519,11.519,0,0,1-5.4,1.073c-4.474,0-7.144-1.3-7.144-3.468V7.813c1.42,1.221,3.88,1.9,7.144,1.9s5.724-.678,7.144-1.9ZM8.532,8.324c-4.474,0-7.144-1.3-7.144-3.468S4.058,1.387,8.532,1.387s7.144,1.3,7.144,3.468S13.005,8.324,8.532,8.324Z" fill="#ebedf0"/>
          </g>
        </g>
        <g id="Group_179" data-name="Group 179" transform="translate(21.225 16.106)">
          <g id="Group_178" data-name="Group 178">
            <path id="Path_44" data-name="Path 44" d="M312.478,232.2a.694.694,0,0,0-.057,1.386,9.356,9.356,0,0,1,3.542.684,10.333,10.333,0,0,1-4.206.69,9.836,9.836,0,0,1-4.275-.73.694.694,0,0,0-1.09-.839,1.219,1.219,0,0,0-.392.875c0,2.022,5.168,2.081,5.757,2.081s5.757-.058,5.757-2.081C317.514,232.54,313.66,232.248,312.478,232.2Z" transform="translate(-306 -232.199)" fill="#ebedf0"/>
          </g>
        </g>
        <g id="Group_181" data-name="Group 181" transform="translate(18.45 13.318)">
          <g id="Group_180" data-name="Group 180">
            <path id="Path_45" data-name="Path 45" d="M274.532,192c-5.342,0-8.532,1.815-8.532,4.855v12.485c0,3.04,3.189,4.855,8.532,4.855s8.532-1.815,8.532-4.855V196.855C283.063,193.815,279.874,192,274.532,192Zm7.144,17.341c0,2.172-2.671,3.468-7.144,3.468s-7.144-1.3-7.144-3.468v-1.2c1.42,1.221,3.88,1.9,7.144,1.9s5.724-.678,7.144-1.9Zm0-4.162c0,2.172-2.671,3.468-7.144,3.468s-7.144-1.3-7.144-3.468v-1.2c1.42,1.221,3.88,1.9,7.144,1.9s5.724-.678,7.144-1.9Zm0-4.162c0,2.172-2.671,3.468-7.144,3.468s-7.144-1.3-7.144-3.468v-1.2c1.42,1.221,3.88,1.9,7.144,1.9s5.724-.678,7.144-1.9Zm-7.144-.694c-4.474,0-7.144-1.3-7.144-3.468s2.671-3.468,7.144-3.468,7.144,1.3,7.144,3.468S279.005,200.324,274.532,200.324Z" transform="translate(-266 -192)" fill="#ebedf0"/>
          </g>
        </g>
      </g>
    </g>
  </g>
</svg>
