<svg xmlns="http://www.w3.org/2000/svg" width="21.933" height="22.503" viewBox="0 0 21.933 22.503">
  <path id="Icon_awesome-arrow-down" data-name="Icon awesome-arrow-down" d="M20.862,11.818l1.115,1.115a1.2,1.2,0,0,1,0,1.7L12.218,24.4a1.2,1.2,0,0,1-1.7,0L.751,14.636a1.2,1.2,0,0,1,0-1.7l1.115-1.115a1.207,1.207,0,0,1,1.723.02L9.355,17.89V3.455A1.2,1.2,0,0,1,10.56,2.25h1.607a1.2,1.2,0,0,1,1.205,1.205V17.89l5.766-6.052a1.2,1.2,0,0,1,1.723-.02Z" transform="translate(-0.397 -2.25)" fill="#5183bf"/>
</svg>
