<svg xmlns="http://www.w3.org/2000/svg" width="50" height="50" viewBox="0 0 50 50">
  <g id="Group_727" data-name="Group 727" transform="translate(-308 -1678)">
    <circle id="Ellipse_27" data-name="Ellipse 27" cx="25" cy="25" r="25" transform="translate(308 1678)" fill="#5183bf"/>
    <path id="Path_1920" data-name="Path 1920" d="M12.207,4.684q-3.493,0-10.571-.456V-17.187H12.328a13.07,13.07,0,0,1,3.174.365,8.652,8.652,0,0,1,2.521,1.033,5.132,5.132,0,0,1,1.663,1.633,4.014,4.014,0,0,1,.6,2.164,5.208,5.208,0,0,1-.851,3.129,3.674,3.674,0,0,1-2.552,1.428,4.626,4.626,0,0,1,3.25,1.519A5.4,5.4,0,0,1,21.259-2.3,5.629,5.629,0,0,1,20.576.408a7.045,7.045,0,0,1-1.9,2.217,9.534,9.534,0,0,1-2.871,1.5A11.272,11.272,0,0,1,12.207,4.684Zm2.217-7.412a2.549,2.549,0,0,0-.235-1.124,2.177,2.177,0,0,0-.661-.8,3.063,3.063,0,0,0-1.018-.486A4.8,4.8,0,0,0,11.2-5.31H8.531v5q.349.015.683.015H11.6a3.581,3.581,0,0,0,1.109-.167,2.639,2.639,0,0,0,.9-.486,2.337,2.337,0,0,0,.6-.767A2.259,2.259,0,0,0,14.424-2.728Zm-.608-8.141q0-2.187-2.734-2.187H8.562v4.313h2.46a3.912,3.912,0,0,0,1.109-.152,2.84,2.84,0,0,0,.889-.425,2,2,0,0,0,.585-.668A1.828,1.828,0,0,0,13.817-10.869Z" transform="translate(321.364 1709.041)" fill="#e0e9f0"/>
  </g>
</svg>
