<svg xmlns="http://www.w3.org/2000/svg" width="81.008" height="81.02" viewBox="0 0 81.008 81.02">
  <g id="Group_174" data-name="Group 174" transform="translate(8784.507 3095.503)">
    <path id="Vector" d="M23.792,33.66a40,40,0,0,0-4.9-19.178A40,40,0,0,0,5.4,0L0,8.415A30,30,0,0,1,10.12,19.277,30,30,0,0,1,13.792,33.66Z" transform="translate(-8727.792 -3088.66)" stroke="#000" stroke-width="1"/>
    <path id="Vector-2" data-name="Vector" d="M61.462,6.34A40,40,0,0,0,0,36.564l9.963.859a30,30,0,0,1,46.1-22.668Z" transform="translate(-8783.853 -3095)" stroke="#000" stroke-width="1"/>
    <path id="Vector-3" data-name="Vector" d="M.148,0A40,40,0,0,0,52.693,41.369L49.52,31.886A30,30,0,0,1,10.111.859Z" transform="translate(-8784 -3058.436)" stroke="#000" stroke-width="1"/>
    <path id="Vector-4" data-name="Vector" d="M3.173,37.933A40,40,0,0,0,22.943,23.37,40,40,0,0,0,30.48,0h-10a30,30,0,0,1-5.653,17.527A30,30,0,0,1,0,28.45Z" transform="translate(-8734.48 -3055)" stroke="#000" stroke-width="1"/>
  </g>
</svg>
