<?xml version="1.0" encoding="iso-8859-1"?>
<!-- Generator: Adobe Illustrator 19.0.0, SVG Export Plug-In . SVG Version: 6.00 Build 0)  -->
<svg version="1.1" id="Capa_1" xmlns="http://www.w3.org/2000/svg" xmlns:xlink="http://www.w3.org/1999/xlink" x="0px" y="0px"
	 viewBox="0 0 512 512" style="enable-background:new 0 0 512 512;" xml:space="preserve">
<g>
	<g>
		<path d="M444.456,230.271c-10.658,0-19.296,8.638-19.296,19.296v223.807l-386.541-0.579L39.21,86.191h223.865
			c10.652,0,19.296-8.638,19.296-19.297s-8.638-19.297-19.296-19.297H19.94c-10.645,0-19.277,8.619-19.297,19.264L0,492.028
			c-0.006,5.12,2.013,10.034,5.635,13.655c3.608,3.628,8.516,5.667,13.636,5.673L444.43,512c0.013,0,0.019,0,0.032,0
			c5.114,0,10.015-2.033,13.63-5.641c3.628-3.615,5.66-8.529,5.66-13.656V249.568C463.752,238.91,455.114,230.271,444.456,230.271z"
			/>
	</g>
</g>
<g>
	<g>
		<path d="M492.703,0H353.769c-10.658,0-19.297,8.638-19.297,19.297c0,10.658,8.638,19.296,19.297,19.296h119.638v120.281
			c0,10.658,8.638,19.296,19.296,19.296c10.658,0,19.297-8.638,19.297-19.296V19.297C512,8.638,503.362,0,492.703,0z"/>
	</g>
</g>
<g>
	<g>
		<path d="M506.346,5.654c-7.538-7.539-19.747-7.539-27.285,0L230.779,253.935c-7.538,7.532-7.538,19.753,0,27.285
			c3.763,3.769,8.703,5.654,13.643,5.654c4.94,0,9.88-1.885,13.643-5.654L506.346,32.939
			C513.885,25.407,513.885,13.186,506.346,5.654z"/>
	</g>
</g>
<g>
</g>
<g>
</g>
<g>
</g>
<g>
</g>
<g>
</g>
<g>
</g>
<g>
</g>
<g>
</g>
<g>
</g>
<g>
</g>
<g>
</g>
<g>
</g>
<g>
</g>
<g>
</g>
<g>
</g>
</svg>
