<svg xmlns="http://www.w3.org/2000/svg" width="28" height="28" viewBox="0 0 28 28">
  <path id="github" d="M14,28A14,14,0,0,1,4.1,4.1,14,14,0,0,1,23.9,23.9,13.908,13.908,0,0,1,14,28ZM9.253,9h0a2.562,2.562,0,0,0-.378,1.341,4.042,4.042,0,0,0,.2,1.263A4.446,4.446,0,0,0,8,14.544,5.587,5.587,0,0,0,8.523,17c.909,1.786,3.189,1.936,5.448,1.936h.651c1.748,0,4.39,0,5.348-1.936a5.711,5.711,0,0,0,.453-2.459,4.43,4.43,0,0,0-1.009-2.956,4,4,0,0,0,.2-1.247A2.559,2.559,0,0,0,19.235,9a3.982,3.982,0,0,0-2.79.911,8.916,8.916,0,0,0-2.081-.238,9.958,9.958,0,0,0-2.3.258A4.029,4.029,0,0,0,9.253,9Zm5.608,9.473H13.613c-1.671,0-3.892-.272-3.892-2.622a1.954,1.954,0,0,1,1.9-2.137,8.018,8.018,0,0,1,1.171.114l.278.04a7.669,7.669,0,0,0,1.167.083,7.605,7.605,0,0,0,1.167-.083l.3-.043a7.833,7.833,0,0,1,1.152-.112,1.954,1.954,0,0,1,1.9,2.137C18.759,18.2,16.534,18.472,14.861,18.472Zm1.76-4.048c-.648,0-.95.851-.95,1.427s.3,1.426.95,1.426.949-.851.949-1.426S17.269,14.424,16.621,14.424Zm-4.755,0c-.648,0-.95.851-.95,1.427s.3,1.426.95,1.426.95-.851.95-1.426S12.515,14.424,11.867,14.424Z" fill="#fff"/>
</svg>
