<svg xmlns="http://www.w3.org/2000/svg" width="28" height="28" viewBox="0 0 28 28">
  <g id="github-active" transform="translate(330 8734)">
    <g id="Ellipse_18" data-name="Ellipse 18" transform="translate(-330 -8734)" fill="none" stroke="#fff" stroke-width="1">
      <circle cx="14" cy="14" r="14" stroke="none"/>
      <circle cx="14" cy="14" r="13.5" fill="none"/>
    </g>
    <path id="Icon_awesome-github-alt" data-name="Icon awesome-github-alt" d="M4.816,11.351c0,.541-.282,1.426-.95,1.426s-.95-.885-.95-1.426.282-1.426.95-1.426.95.885.95,1.426Zm7.606-1.307A5.609,5.609,0,0,1,11.97,12.5c-.981,1.982-3.678,1.936-5.608,1.936-1.962,0-4.819.07-5.839-1.936A5.54,5.54,0,0,1,0,10.044,4.451,4.451,0,0,1,1.074,7.1a4.051,4.051,0,0,1-.2-1.263A2.577,2.577,0,0,1,1.253,4.5a4.044,4.044,0,0,1,2.816.932,9.914,9.914,0,0,1,2.3-.259,8.928,8.928,0,0,1,2.081.238,4,4,0,0,1,2.79-.911,2.553,2.553,0,0,1,.378,1.341,4,4,0,0,1-.2,1.247,4.459,4.459,0,0,1,1.009,2.956Zm-1.664,1.307a1.955,1.955,0,0,0-1.9-2.138,10.641,10.641,0,0,0-1.449.155,7.6,7.6,0,0,1-1.167.083,7.651,7.651,0,0,1-1.167-.083,10.469,10.469,0,0,0-1.449-.155,1.955,1.955,0,0,0-1.9,2.138c0,2.272,2.081,2.622,3.893,2.622H6.861c1.819,0,3.9-.347,3.9-2.622ZM8.621,9.925c-.668,0-.95.885-.95,1.426s.282,1.426.95,1.426.95-.885.95-1.426S9.289,9.925,8.621,9.925Z" transform="translate(-322.429 -8729.5)" fill="#fff"/>
  </g>
</svg>
