<svg xmlns="http://www.w3.org/2000/svg" width="17.02" height="17.02" viewBox="0 0 17.02 17.02">
  <path id="Icon_simple-instagram" data-name="Icon simple-instagram" d="M8.51,0C6.2,0,5.909.011,5,.051a6.275,6.275,0,0,0-2.066.4,4.167,4.167,0,0,0-1.508.981A4.152,4.152,0,0,0,.447,2.936,6.257,6.257,0,0,0,.051,5C.009,5.909,0,6.2,0,8.51s.011,2.6.051,3.508a6.279,6.279,0,0,0,.4,2.066,4.173,4.173,0,0,0,.981,1.508,4.161,4.161,0,0,0,1.508.981,6.283,6.283,0,0,0,2.066.4c.908.043,1.2.051,3.508.051s2.6-.011,3.508-.051a6.3,6.3,0,0,0,2.066-.4,4.349,4.349,0,0,0,2.489-2.489,6.279,6.279,0,0,0,.4-2.066c.043-.908.051-1.2.051-3.508s-.011-2.6-.051-3.508a6.293,6.293,0,0,0-.4-2.066,4.177,4.177,0,0,0-.981-1.508A4.146,4.146,0,0,0,14.084.447a6.26,6.26,0,0,0-2.066-.4C11.11.009,10.822,0,8.51,0Zm0,1.532c2.271,0,2.542.011,3.439.05a4.688,4.688,0,0,1,1.579.294,2.8,2.8,0,0,1,1.615,1.615,4.7,4.7,0,0,1,.293,1.579c.04.9.05,1.167.05,3.439s-.011,2.542-.052,3.439a4.789,4.789,0,0,1-.3,1.579,2.7,2.7,0,0,1-.638.98,2.655,2.655,0,0,1-.979.635,4.733,4.733,0,0,1-1.585.293c-.9.04-1.169.05-3.446.05s-2.543-.011-3.446-.052a4.825,4.825,0,0,1-1.586-.3,2.635,2.635,0,0,1-.978-.638,2.584,2.584,0,0,1-.638-.979,4.829,4.829,0,0,1-.3-1.585C1.511,11.041,1.5,10.765,1.5,8.5s.011-2.543.043-3.447a4.824,4.824,0,0,1,.3-1.584,2.523,2.523,0,0,1,.638-.979,2.517,2.517,0,0,1,.978-.637,4.71,4.71,0,0,1,1.575-.3c.9-.032,1.17-.043,3.446-.043l.032.021Zm0,2.608a4.37,4.37,0,1,0,4.37,4.37A4.369,4.369,0,0,0,8.51,4.14Zm0,7.206A2.837,2.837,0,1,1,11.346,8.51,2.836,2.836,0,0,1,8.51,11.346Zm5.564-7.379a1.021,1.021,0,1,1-1.021-1.02A1.022,1.022,0,0,1,14.074,3.968Z" fill="#fff"/>
</svg>
