<svg xmlns="http://www.w3.org/2000/svg" width="11.194" height="11.194" viewBox="0 0 11.194 11.194">
  <path id="Icon_awesome-linkedin-in" data-name="Icon awesome-linkedin-in" d="M2.506,11.195H.185V3.721H2.506ZM1.344,2.7A1.35,1.35,0,1,1,2.688,1.345,1.355,1.355,0,0,1,1.344,2.7Zm9.848,8.493H8.876V7.557c0-.867-.017-1.979-1.207-1.979-1.207,0-1.392.942-1.392,1.917v3.7H3.959V3.721H6.185V4.74h.032a2.439,2.439,0,0,1,2.2-1.207c2.349,0,2.781,1.547,2.781,3.556v4.105Z" transform="translate(0 -0.001)" fill="#5183bf"/>
</svg>
