<svg xmlns="http://www.w3.org/2000/svg" width="28" height="28" viewBox="0 0 28 28">
  <path id="medium" d="M14,28A14,14,0,0,1,4.1,4.1,14,14,0,0,1,23.9,23.9,13.908,13.908,0,0,1,14,28Zm2.087-16.414h0v5.286c0,.139,0,.168-.092.26l-.941.913v.194h4.567v-.194l-.908-.891a.272.272,0,0,1-.1-.26V10.345a.272.272,0,0,1,.1-.26l.93-.89V9H16.426l-2.294,5.722L11.522,9H8.147v.2L9.232,10.5a.454.454,0,0,1,.148.38v5.148a.59.59,0,0,1-.157.51L8,18.028v.193h3.467v-.2l-1.223-1.482a.6.6,0,0,1-.168-.51V11.581l3.043,6.642h.354Z" fill="#fff"/>
</svg>
