<svg xmlns="http://www.w3.org/2000/svg" width="41" height="38.094" viewBox="0 0 41 38.094">
  <g id="Group_305" data-name="Group 305" transform="translate(0.5 0.5)">
    <path id="Path_1243" data-name="Path 1243" d="M280.526,120,264.9,131.592l2.906-6.832Z" transform="translate(-242.504 -120)" fill="#e17726" stroke="#e17726" stroke-linecap="round" stroke-linejoin="round" stroke-width="1"/>
    <g id="Group_300" data-name="Group 300" transform="translate(0.325)">
      <path id="Path_1244" data-name="Path 1244" d="M132.8,120l15.487,11.7-2.767-6.94Z" transform="translate(-131.146 -120)" fill="#e27625" stroke="#e27625" stroke-linecap="round" stroke-linejoin="round" stroke-width="1"/>
      <path id="Path_1245" data-name="Path 1245" d="M306.858,293.9l-4.158,6.368,8.9,2.458,2.55-8.686Z" transform="translate(-274.787 -267.022)" fill="#e27625" stroke="#e27625" stroke-linecap="round" stroke-linejoin="round" stroke-width="1"/>
      <path id="Path_1246" data-name="Path 1246" d="M122.1,294.039l2.535,8.686,8.887-2.458L129.38,293.9Z" transform="translate(-122.1 -267.022)" fill="#e27625" stroke="#e27625" stroke-linecap="round" stroke-linejoin="round" stroke-width="1"/>
      <path id="Path_1247" data-name="Path 1247" d="M179.373,194.963,176.9,198.7l8.81.4-.294-9.505Z" transform="translate(-168.43 -178.843)" fill="#e27625" stroke="#e27625" stroke-linecap="round" stroke-linejoin="round" stroke-width="1"/>
      <path id="Path_1248" data-name="Path 1248" d="M271.237,194.371,265.1,188.9l-.2,9.614,8.81-.4Z" transform="translate(-242.829 -178.251)" fill="#e27625" stroke="#e27625" stroke-linecap="round" stroke-linejoin="round" stroke-width="1"/>
      <path id="Path_1249" data-name="Path 1249" d="M196,301.367l5.332-2.581-4.59-3.586Z" transform="translate(-184.578 -268.121)" fill="#e27625" stroke="#e27625" stroke-linecap="round" stroke-linejoin="round" stroke-width="1"/>
      <path id="Path_1250" data-name="Path 1250" d="M268.3,298.786l5.317,2.581-.726-6.167Z" transform="translate(-245.703 -268.121)" fill="#e27625" stroke="#e27625" stroke-linecap="round" stroke-linejoin="round" stroke-width="1"/>
    </g>
    <g id="Group_301" data-name="Group 301" transform="translate(11.747 30.665)">
      <path id="Path_1251" data-name="Path 1251" d="M273.617,320.981,268.3,318.4l.433,3.462-.046,1.468Z" transform="translate(-257.125 -318.4)" fill="#d5bfb2" stroke="#d5bfb2" stroke-linecap="round" stroke-linejoin="round" stroke-width="1"/>
      <path id="Path_1252" data-name="Path 1252" d="M196,320.981l4.946,2.349-.031-1.468.417-3.462Z" transform="translate(-196 -318.4)" fill="#d5bfb2" stroke="#d5bfb2" stroke-linecap="round" stroke-linejoin="round" stroke-width="1"/>
    </g>
    <path id="Path_1253" data-name="Path 1253" d="M204.42,265.436l-4.42-1.3,3.122-1.437Z" transform="translate(-187.635 -240.644)" fill="#233447" stroke="#233447" stroke-linecap="round" stroke-linejoin="round" stroke-width="1"/>
    <path id="Path_1254" data-name="Path 1254" d="M270.2,265.436l1.3-2.736,3.138,1.437Z" transform="translate(-246.985 -240.644)" fill="#233447" stroke="#233447" stroke-linecap="round" stroke-linejoin="round" stroke-width="1"/>
    <g id="Group_302" data-name="Group 302" transform="translate(7.604 19.861)">
      <path id="Path_1255" data-name="Path 1255" d="M173.342,300.268l.773-6.368-4.915.139Z" transform="translate(-169.2 -286.883)" fill="#cc6228" stroke="#cc6228" stroke-linecap="round" stroke-linejoin="round" stroke-width="1"/>
      <path id="Path_1256" data-name="Path 1256" d="M297.8,293.9l.757,6.368,4.158-6.229Z" transform="translate(-277.924 -286.883)" fill="#cc6228" stroke="#cc6228" stroke-linecap="round" stroke-linejoin="round" stroke-width="1"/>
      <path id="Path_1257" data-name="Path 1257" d="M273.71,248.5l-8.81.4.819,4.529,1.3-2.736,3.138,1.437Z" transform="translate(-250.109 -248.5)" fill="#cc6228" stroke="#cc6228" stroke-linecap="round" stroke-linejoin="round" stroke-width="1"/>
      <path id="Path_1258" data-name="Path 1258" d="M180.47,252.132l3.122-1.437,1.3,2.736.819-4.529-8.81-.4Z" transform="translate(-175.71 -248.5)" fill="#cc6228" stroke="#cc6228" stroke-linecap="round" stroke-linejoin="round" stroke-width="1"/>
    </g>
    <g id="Group_303" data-name="Group 303" transform="translate(8.794 19.861)">
      <path id="Path_1259" data-name="Path 1259" d="M176.9,248.5l3.694,7.218-.124-3.586Z" transform="translate(-176.9 -248.5)" fill="#e27525" stroke="#e27525" stroke-linecap="round" stroke-linejoin="round" stroke-width="1"/>
      <path id="Path_1260" data-name="Path 1260" d="M298.139,252.132,298,255.718l3.694-7.218Z" transform="translate(-279.283 -248.5)" fill="#e27525" stroke="#e27525" stroke-linecap="round" stroke-linejoin="round" stroke-width="1"/>
      <path id="Path_1261" data-name="Path 1261" d="M229.419,251.1l-.819,4.529,1.036,5.348.232-7.048Z" transform="translate(-220.609 -250.698)" fill="#e27525" stroke="#e27525" stroke-linecap="round" stroke-linejoin="round" stroke-width="1"/>
      <path id="Path_1262" data-name="Path 1262" d="M262.533,251.1l-.433,2.813.216,7.063,1.036-5.348Z" transform="translate(-248.932 -250.698)" fill="#e27525" stroke="#e27525" stroke-linecap="round" stroke-linejoin="round" stroke-width="1"/>
    </g>
    <path id="Path_1263" data-name="Path 1263" d="M264.536,273.3l-1.036,5.348.742.526,4.59-3.586.139-3.586Z" transform="translate(-241.321 -248.507)" fill="#f5841f" stroke="#f5841f" stroke-linecap="round" stroke-linejoin="round" stroke-width="1"/>
    <path id="Path_1264" data-name="Path 1264" d="M200,272l.124,3.586,4.59,3.586.742-.526L204.42,273.3Z" transform="translate(-187.635 -248.507)" fill="#f5841f" stroke="#f5841f" stroke-linecap="round" stroke-linejoin="round" stroke-width="1"/>
    <path id="Path_1265" data-name="Path 1265" d="M207.561,337.449l.046-1.468-.4-.34h-5.9l-.386.34.031,1.468L196,335.1l1.731,1.422,3.508,2.427h6.012l3.524-2.427,1.716-1.422Z" transform="translate(-184.253 -301.854)" fill="#c0ac9d" stroke="#c0ac9d" stroke-linecap="round" stroke-linejoin="round" stroke-width="1"/>
    <path id="Path_1266" data-name="Path 1266" d="M234.06,315.526l-.742-.526h-4.359l-.742.526-.417,3.462.386-.34h5.9l.4.34Z" transform="translate(-211.138 -284.861)" fill="#161616" stroke="#161616" stroke-linecap="round" stroke-linejoin="round" stroke-width="1"/>
    <g id="Group_304" data-name="Group 304" transform="translate(0)">
      <path id="Path_1267" data-name="Path 1267" d="M284.065,132.349l1.314-6.4L283.4,120l-15.1,11.206,5.811,4.915,8.207,2.4,1.808-2.117-.788-.572,1.252-1.144-.958-.742,1.252-.958Z" transform="translate(-245.379 -120)" fill="#763e1a" stroke="#763e1a" stroke-linecap="round" stroke-linejoin="round" stroke-width="1"/>
      <path id="Path_1268" data-name="Path 1268" d="M120,125.951l1.329,6.4-.85.634,1.267.958-.958.742,1.252,1.144-.788.572,1.808,2.117,8.207-2.4,5.811-4.915L121.978,120Z" transform="translate(-120 -120)" fill="#763e1a" stroke="#763e1a" stroke-linecap="round" stroke-linejoin="round" stroke-width="1"/>
    </g>
    <path id="Path_1269" data-name="Path 1269" d="M307.428,226.7l-8.207-2.4,2.473,3.74L298,235.258l4.884-.062h7.3Z" transform="translate(-270.488 -208.179)" fill="#f5841f" stroke="#f5841f" stroke-linecap="round" stroke-linejoin="round" stroke-width="1"/>
    <path id="Path_1270" data-name="Path 1270" d="M133.043,224.3l-8.207,2.4-2.736,8.5h7.28l4.884.062-3.694-7.218Z" transform="translate(-121.775 -208.179)" fill="#f5841f" stroke="#f5841f" stroke-linecap="round" stroke-linejoin="round" stroke-width="1"/>
    <path id="Path_1271" data-name="Path 1271" d="M222.8,166.3l.525-9.057,2.38-6.445H215.1l2.38,6.445.526,9.057.2,2.844.015,7.032h4.359l.015-7.032Z" transform="translate(-200.401 -146.04)" fill="#f5841f" stroke="#f5841f" stroke-linecap="round" stroke-linejoin="round" stroke-width="1"/>
  </g>
</svg>
