<svg xmlns="http://www.w3.org/2000/svg" width="338.188" height="238.741" viewBox="0 0 338.188 238.741">
  <g id="mint-illustration" transform="translate(-389.653 -1143.156)">
    <g id="mint" transform="matrix(0.891, -0.454, 0.454, 0.891, 389.35, 1211.926)">
      <path id="Path_1592" data-name="Path 1592" d="M58.441,189.3a83.921,83.921,0,0,1-42.9-22.958l-7.83-7.83H22.458A75.96,75.96,0,0,1,.794,114.215L.34,110.588l18.431,3.686-3.553-5.684A53.7,53.7,0,0,1,11.4,58.98l7.373,11.059V61.4A50.347,50.347,0,0,1,33.517,25.8L37.2,40.549l.587-1.372A89.439,89.439,0,0,1,70.38,0l3.461,2.308A51.76,51.76,0,0,1,96.184,36.863L103.556,25.8A55.3,55.3,0,0,1,114.615,58.98v3.686l4.925-3.285a13.772,13.772,0,0,0,6.134-11.46l3.62,6.338a62.942,62.942,0,0,1,7.439,41.584,17.8,17.8,0,0,0,12.585-5.213l2.16-2.16-1.843,18.523a66.1,66.1,0,0,1-12.9,33.085h11.059l-9.758,19.537a53.255,53.255,0,0,1-13.539,17.1l-.3.225A55.317,55.317,0,0,1,93.763,189.57L82.482,190.6a83.79,83.79,0,0,1-24.042-1.3Zm0,0" fill="#a0c1f3"/>
      <g id="Group_572" data-name="Group 572" transform="translate(19.173 25.196)">
        <path id="Path_1593" data-name="Path 1593" d="M119.84,350.444H109.235a127.42,127.42,0,0,1-30.84-3.8l1.793-7.153a119.725,119.725,0,0,0,29.048,3.576h10.089l2.614-.738a113.223,113.223,0,0,0,39.835-20.564l4.608,5.758a120.64,120.64,0,0,1-42.417,21.9l-3.112.884a3.607,3.607,0,0,1-1.01.137Zm0,0" transform="translate(-61.261 -198.699)" fill="#e0e9f0"/>
        <path id="Path_1594" data-name="Path 1594" d="M142.037,221.484,131.6,196.366A188.614,188.614,0,0,1,119.655,92.8L126.01,54.68l7.268,1.217-6.35,38.119a181.282,181.282,0,0,0,11.475,99.53l10.443,25.118Zm0,0" transform="translate(-82.124 -54.68)" fill="#e0e9f0"/>
        <path id="Path_1595" data-name="Path 1595" d="M86.667,278.127h-.623A81.285,81.285,0,0,1,44.219,266.54l3.8-6.318a73.933,73.933,0,0,0,38.027,10.531h.369l13.3-1.9a72.521,72.521,0,0,0,41.017-20.507l6-6,5.213,5.213-6,6a79.836,79.836,0,0,1-45.186,22.593L87.2,278.091a3.5,3.5,0,0,1-.531.036Zm0,0" transform="translate(-42.833 -155.871)" fill="#e0e9f0"/>
        <path id="Path_1596" data-name="Path 1596" d="M99.193,207.215H81.359a3.761,3.761,0,0,1-.9-.11l-13.48-3.373a39.5,39.5,0,0,1-25.772-20.674l6.6-3.294a32.108,32.108,0,0,0,20.96,16.811l13.042,3.267h17.38a45.426,45.426,0,0,0,36.348-18.174l1.843-2.47,5.9,4.424-1.843,2.47a52.8,52.8,0,0,1-42.245,21.122Zm0,0" transform="translate(-41.211 -121.823)" fill="#e0e9f0"/>
        <path id="Path_1597" data-name="Path 1597" d="M94.555,131.723a3.689,3.689,0,0,1-1.372-.265l-6.089-2.437a46.3,46.3,0,0,1-21.41-17.369l6.134-4.093a38.932,38.932,0,0,0,18.016,14.617l4.982,2,15.438-3.879a72.714,72.714,0,0,0,22.8-10.085l4.093,6.134a80.325,80.325,0,0,1-25.1,11.106L95.459,131.6a3.648,3.648,0,0,1-.9.126Zm0,0" transform="translate(-54.407 -83.193)" fill="#e0e9f0"/>
      </g>
    </g>
    <g id="mint-2" data-name="mint" transform="matrix(-0.891, -0.454, 0.454, -0.891, 673.542, 1337.973)">
      <path id="Path_1592-2" data-name="Path 1592" d="M36.193,1.021A52.278,52.278,0,0,0,9.47,15.323L4.593,20.2h9.185A47.319,47.319,0,0,0,.283,47.793L0,50.053l11.482-2.3L9.268,51.3A33.453,33.453,0,0,0,6.889,82.2l4.593-6.889v5.38a31.363,31.363,0,0,0,9.185,22.176l2.3-9.185.366.854a55.716,55.716,0,0,0,20.3,24.405l2.156-1.437A32.244,32.244,0,0,0,59.705,95.98l4.593,6.889A34.447,34.447,0,0,0,71.187,82.2v-2.3l3.068,2.046a8.579,8.579,0,0,1,3.821,7.139l2.255-3.948a39.209,39.209,0,0,0,4.634-25.9,11.089,11.089,0,0,1,7.84,3.247l1.346,1.346L93,52.292a41.178,41.178,0,0,0-8.037-20.61h6.889l-6.078-12.17A33.175,33.175,0,0,0,77.341,8.859l-.184-.14A34.46,34.46,0,0,0,58.2.852L51.17.212a52.2,52.2,0,0,0-14.977.808Zm0,0" transform="translate(0 0.662)" fill="#a0c1f3"/>
      <g id="Group_572-2" data-name="Group 572" transform="translate(11.732 0)">
        <path id="Path_1593-2" data-name="Path 1593" d="M25.818,0H19.212A79.376,79.376,0,0,0,0,2.365L1.117,6.821A74.582,74.582,0,0,1,19.212,4.593H25.5l1.628.46a70.532,70.532,0,0,1,24.815,12.81l2.87-3.587A75.152,75.152,0,0,0,28.386.636L26.447.085A2.247,2.247,0,0,0,25.818,0Zm0,0" transform="translate(10.673 9.381)" fill="#e0e9f0"/>
        <path id="Path_1594-2" data-name="Path 1594" d="M15.543,0l-6.5,15.647A117.5,117.5,0,0,0,1.6,80.162L5.559,103.91l4.528-.758L6.131,79.406a112.929,112.929,0,0,1,7.148-62L19.784,1.757Zm0,0" transform="translate(21.78 0)" fill="#e0e9f0"/>
        <path id="Path_1595-2" data-name="Path 1595" d="M26.443,0h-.388A50.636,50.636,0,0,0,0,7.218l2.366,3.936A46.056,46.056,0,0,1,26.055,4.593h.23l8.287,1.185A45.176,45.176,0,0,1,60.123,18.553l3.738,3.738,3.247-3.247-3.738-3.738A49.733,49.733,0,0,0,35.222,1.231L26.774.023A2.178,2.178,0,0,0,26.443,0Zm0,0" transform="translate(0.863 27.751)" fill="#e0e9f0"/>
        <path id="Path_1596-2" data-name="Path 1596" d="M36.119,0H25.01a2.343,2.343,0,0,0-.558.068l-8.4,2.1A24.609,24.609,0,0,0,0,15.049L4.111,17.1A20,20,0,0,1,17.168,6.628l8.125-2.035H36.119A28.3,28.3,0,0,1,58.762,15.914l1.148,1.538L63.584,14.7l-1.148-1.538A32.891,32.891,0,0,0,36.119,0Zm0,0" transform="translate(0 50.715)" fill="#e0e9f0"/>
        <path id="Path_1597-2" data-name="Path 1597" d="M17.985,0a2.3,2.3,0,0,0-.854.165L13.337,1.683A28.84,28.84,0,0,0,0,12.5l3.821,2.55A24.253,24.253,0,0,1,15.044,5.947l3.1-1.245,9.617,2.416A45.3,45.3,0,0,1,41.97,13.4L44.52,9.58A50.038,50.038,0,0,0,28.882,2.662L18.548.079A2.272,2.272,0,0,0,17.985,0Zm0,0" transform="translate(7.025 73.678)" fill="#e0e9f0"/>
      </g>
    </g>
  </g>
</svg>
