<svg xmlns="http://www.w3.org/2000/svg" width="11.681" height="15.182" viewBox="0 0 11.681 15.182">
  <path id="Icon_awesome-pinterest-p" data-name="Icon awesome-pinterest-p" d="M6.205.457C3.084.457,0,2.538,0,5.9,0,8.046,1.2,9.263,1.935,9.263c.3,0,.475-.84.475-1.077,0-.283-.721-.885-.721-2.062a4.111,4.111,0,0,1,4.271-4.18c2.072,0,3.6,1.177,3.6,3.34,0,1.615-.648,4.645-2.747,4.645A1.351,1.351,0,0,1,5.411,8.6c0-1.15.8-2.263.8-3.449,0-2.014-2.856-1.649-2.856.785A3.574,3.574,0,0,0,3.65,7.475c-.42,1.807-1.278,4.5-1.278,6.361,0,.575.082,1.141.137,1.716.1.116.052.1.21.046,1.533-2.1,1.478-2.51,2.172-5.256A2.467,2.467,0,0,0,7,11.435c3.23,0,4.681-3.148,4.681-5.986C11.681,2.428,9.071.457,6.205.457Z" transform="translate(0 -0.457)" fill="#fff"/>
</svg>
