<svg xmlns="http://www.w3.org/2000/svg" width="115.737" height="160.001" viewBox="0 0 115.737 160.001">
  <g id="pool" transform="translate(-63.793)">
    <g id="Group_569" data-name="Group 569" transform="translate(139.202 0)">
      <g id="Group_568" data-name="Group 568" transform="translate(0 0)">
        <path id="Path_1590" data-name="Path 1590" d="M311.336,14.127c-4.33-3.816-8.063-7.119-8.063-12.115A2.054,2.054,0,0,0,301.261,0c-2.928,0-20.108,18.4-20.108,30.877a20.164,20.164,0,1,0,40.327.015v-.015C321.481,23.106,316.1,18.332,311.336,14.127Z" transform="translate(-281.153 0)" fill="#a0c1f3"/>
      </g>
    </g>
    <g id="Group_571" data-name="Group 571" transform="translate(63.793 23.563)">
      <g id="Group_570" data-name="Group 570" transform="translate(0)">
        <path id="Path_1591" data-name="Path 1591" d="M142.866,106.762h0c-12.281-10.852-23.952-21.094-23.952-36.733a2.082,2.082,0,0,0-2.053-2.109H116.8c-4.857,0-53.011,49.334-53.011,83.264a53.164,53.164,0,0,0,106.328.019v-.019C170.177,130.867,156.3,118.613,142.866,106.762Zm-25.853,82.293a1.964,1.964,0,0,1,0-3.927,30.96,30.96,0,0,0,30.933-30.919,1.964,1.964,0,0,1,3.927,0A34.887,34.887,0,0,1,117.013,189.055Z" transform="translate(-63.793 -67.919)" fill="#a0c1f3"/>
      </g>
    </g>
  </g>
</svg>
