<svg id="Layer_2-2" xmlns="http://www.w3.org/2000/svg" width="27.016" height="40.823" viewBox="0 0 27.016 40.823">
  <g id="Layer_1-2-2">
    <path id="Path_1378" data-name="Path 1378" d="M22,316.4l.983-.425L35.094,310.7l13.094,5.7-4.916,10.167-12.021,1.7L22.2,318.5Z" transform="translate(-21.575 -292.936)" fill="#133444"/>
    <path id="Path_1379" data-name="Path 1379" d="M47.425,291.31a13.427,13.427,0,0,0-8.58-4.737l-.223-.022a12.384,12.384,0,0,0-3.151,0l-.223.022a13.527,13.527,0,0,0-8.58,4.737h0l-.536.894-.916,1.5-.67,1.095h0a.169.169,0,0,1-.045.089v.022l1.452.871,9.273,5.5,1.788,1.05V289.21l-1.788.8v-1.966l1.788-.8,1.788.8,9.116,4.156Z" transform="translate(-23.517 -274.105)" fill="#c42370"/>
    <path id="Path_1380" data-name="Path 1380" d="M47.114,339.462a14.444,14.444,0,0,1-5.3,11.105,13.561,13.561,0,0,1-4.268,2.368,12.379,12.379,0,0,1-3.933.626c-7.463,0-13.518-6.636-13.518-14.1a13.446,13.446,0,0,1,.4-3.262L33.6,343.953,46.69,336.2A11.581,11.581,0,0,1,47.114,339.462Z" transform="translate(-20.1 -312.739)" fill="#1c4d6b"/>
    <path id="Path_1381" data-name="Path 1381" d="M72.823,286.512l1.564.693-1.788.827V286.4Z" transform="translate(-60.869 -274.066)"/>
    <path id="Path_1382" data-name="Path 1382" d="M72.6,299.627l1.788-.827v13.138L72.6,310.866Z" transform="translate(-60.869 -283.695)"/>
    <path id="Path_1383" data-name="Path 1383" d="M80.6,298.8v13.138l12.557-7.418Z" transform="translate(-67.082 -283.695)" fill="#1d4259"/>
    <path id="Path_1384" data-name="Path 1384" d="M80.6,231.2v15.1l12.557,5.72Z" transform="translate(-67.082 -231.2)" fill="#4b6b9a"/>
    <path id="Path_1385" data-name="Path 1385" d="M36.957,294.917v13.116l-1.788-1.05-10.748-6.346h0a.169.169,0,0,1,.045-.089h0l1.564-2.614,9.116-4.134v1.944Z" transform="translate(-23.439 -279.813)" fill="#343535"/>
    <path id="Path_1386" data-name="Path 1386" d="M37.035,298.8v13.138l-1.788-1.072L24.5,304.52h0l.022-.022,10.725-4.871Z" transform="translate(-23.517 -283.695)" fill="#3e5578"/>
    <path id="Path_1387" data-name="Path 1387" d="M37.035,231.2v15.1L24.5,252.025Z" transform="translate(-23.517 -231.2)" fill="#6db2d8"/>
    <path id="Path_1388" data-name="Path 1388" d="M57.9,409.1a5.829,5.829,0,0,0,.559.224C58.28,409.256,58.1,409.167,57.9,409.1Z" transform="translate(-49.454 -369.35)" fill="#335f8a"/>
    <path id="Path_1389" data-name="Path 1389" d="M60.4,410.1a4.442,4.442,0,0,0,.581.2A3.608,3.608,0,0,1,60.4,410.1Z" transform="translate(-51.395 -370.126)" fill="#335f8a"/>
    <path id="Path_1390" data-name="Path 1390" d="M65.3,411.7a3.271,3.271,0,0,0,.447.112A2.617,2.617,0,0,1,65.3,411.7Z" transform="translate(-55.2 -371.369)" fill="#335f8a"/>
    <path id="Path_1391" data-name="Path 1391" d="M20.6,336.2,33.7,343.953a15.4,15.4,0,0,1-.938,3.441c-1.05,2.547-3.151,5.228-7.262,3.173h0a14.444,14.444,0,0,1-5.3-11.105A13.446,13.446,0,0,1,20.6,336.2Z" transform="translate(-20.178 -312.739)" fill="#6db2d8"/>
    <path id="Path_1392" data-name="Path 1392" d="M60.767,377.591l-.045.022c-.067.045-.134.112-.2.156l-.022.022c-.067.067-.156.112-.223.179a1.7,1.7,0,0,1-.246.179.994.994,0,0,0-.246.179,1.929,1.929,0,0,0-.223.156l-.045.022a.8.8,0,0,0-.223.156.022.022,0,0,0-.022.022,1.5,1.5,0,0,0-.246.156,1.669,1.669,0,0,0-.268.156l-.268.134h0l-.268.134-.268.134-.268.134a5.813,5.813,0,0,1-.559.223c-.179.067-.38.134-.581.2-.067.022-.156.045-.223.067l-.268.089a3.272,3.272,0,0,1-.447.112c-.045.022-.112.022-.179.045l-.089.022-.246.045c-.089.022-.134.022-.223.045-.067.022-.134.022-.2.045a.794.794,0,0,0-.223.045.2.2,0,0,0-.112.022l-.179.022h-.089c-.067,0-.134.022-.179.022-.067,0-.156.022-.223.022H51.605c-.067,0-.156-.022-.223-.022a.436.436,0,0,1-.179-.022h-.089c-.045,0-.112-.022-.179-.022a.2.2,0,0,1-.112-.022.794.794,0,0,1-.223-.045.653.653,0,0,1-.2-.045.794.794,0,0,1-.223-.045.8.8,0,0,0-.246-.045l-.089-.022c-.067,0-.134-.022-.179-.022a4.33,4.33,0,0,0-.447-.112l-.268-.089c-.089-.022-.156-.045-.223-.067-.2-.067-.38-.134-.581-.2s-.38-.156-.559-.223l-.268-.134-.268-.134-.268-.134h0l-.268-.134a1.67,1.67,0,0,1-.268-.156,1.505,1.505,0,0,1-.246-.156l-.022-.022a.8.8,0,0,1-.223-.156l-.045-.022a1.356,1.356,0,0,1-.223-.156,1.7,1.7,0,0,1-.246-.179,2.341,2.341,0,0,1-.246-.179l-.223-.179-.022-.022c-.067-.045-.134-.112-.2-.156l-.045-.022c4.089,2.033,6.212-.648,7.262-3.173A15.08,15.08,0,0,0,52.7,371a15.4,15.4,0,0,0,.938,3.441C54.555,376.944,56.678,379.625,60.767,377.591Z" transform="translate(-39.048 -339.763)" fill="#529bba"/>
    <path id="Path_1393" data-name="Path 1393" d="M94,411.912a4.331,4.331,0,0,1,.447-.112A4.338,4.338,0,0,0,94,411.912Z" transform="translate(-77.488 -371.446)" fill="#335f8a"/>
    <path id="Path_1394" data-name="Path 1394" d="M98.2,410.3c.2-.067.38-.134.581-.2A2.552,2.552,0,0,1,98.2,410.3Z" transform="translate(-80.749 -370.126)" fill="#335f8a"/>
    <path id="Path_1395" data-name="Path 1395" d="M100.8,409.323c.179-.067.38-.156.559-.224C101.18,409.167,101,409.256,100.8,409.323Z" transform="translate(-82.768 -369.35)" fill="#335f8a"/>
    <path id="Path_1396" data-name="Path 1396" d="M94.1,339.462a14.444,14.444,0,0,1-5.3,11.105c-4.089,2.033-6.212-.648-7.262-3.173a15.08,15.08,0,0,1-.938-3.441L93.694,336.2A13.446,13.446,0,0,1,94.1,339.462Z" transform="translate(-67.082 -312.739)" fill="#4b6b9a"/>
  </g>
</svg>
