<svg id="reverse" xmlns="http://www.w3.org/2000/svg" width="15.496" height="12.397" viewBox="0 0 15.496 12.397">
  <g id="Group_483" data-name="Group 483" transform="translate(0 2.325)">
    <g id="Group_482" data-name="Group 482" transform="translate(0 0)">
      <path id="Path_1482" data-name="Path 1482" d="M10.976,128H.805a.8.8,0,0,0-.79.62.776.776,0,0,0,.76.929h10.2a.129.129,0,0,0,.129-.129v-1.291A.129.129,0,0,0,10.976,128Z" transform="translate(0 -128.004)" fill="#fff"/>
    </g>
  </g>
  <g id="Group_485" data-name="Group 485" transform="translate(11.622 0)">
    <g id="Group_484" data-name="Group 484" transform="translate(0 0)">
      <path id="Path_1483" data-name="Path 1483" d="M387.784,54.1l-3.357-2.841a.258.258,0,0,0-.425.2v5.682a.258.258,0,0,0,.425.2l3.357-2.841a.259.259,0,0,0,0-.395Z" transform="translate(-384.001 -51.198)" fill="#fff"/>
    </g>
  </g>
  <g id="Group_487" data-name="Group 487" transform="translate(0 6.199)">
    <g id="Group_486" data-name="Group 486" transform="translate(0 0)">
      <path id="Path_1484" data-name="Path 1484" d="M3.725,256.031a.258.258,0,0,0-.276.037L.092,258.909a.258.258,0,0,0,0,.394l3.357,2.841a.259.259,0,0,0,.167.061.258.258,0,0,0,.258-.258v-5.682A.258.258,0,0,0,3.725,256.031Z" transform="translate(-0.001 -256.007)" fill="#fff"/>
    </g>
  </g>
  <g id="Group_489" data-name="Group 489" transform="translate(4.39 8.523)">
    <g id="Group_488" data-name="Group 488" transform="translate(0 0)">
      <path id="Path_1485" data-name="Path 1485" d="M156.157,333.424a.8.8,0,0,0-.79-.62H145.2a.129.129,0,0,0-.129.129v1.291a.129.129,0,0,0,.129.129h10.2A.776.776,0,0,0,156.157,333.424Z" transform="translate(-145.067 -332.804)" fill="#fff"/>
    </g>
  </g>
</svg>
