<svg xmlns="http://www.w3.org/2000/svg" width="243.086" height="139" viewBox="0 0 243.086 139">
  <g id="Group_756" data-name="Group 756" transform="translate(-426.459 -1226.5)">
    <g id="trophy" transform="translate(478.488 1226.5)">
      <circle id="Ellipse_28" data-name="Ellipse 28" cx="6.814" cy="6.814" r="6.814" transform="translate(62.686 43.063)" fill="#a0c1f3"/>
      <path id="Path_1921" data-name="Path 1921" d="M135.767,11.243l-1.06-2.475H117.2V.047H21.8V8.769H4.293C1.836,14.5,0,19.283,0,27.029A40.064,40.064,0,0,0,36.094,66.9c15.651,26.476,51.252,26.325,66.813,0C129.936,64.255,146.378,35.955,135.767,11.243ZM54.51,49.923A14.99,14.99,0,1,1,69.5,64.914,15.006,15.006,0,0,1,54.51,49.923ZM9.8,16.945h12v8.722h7.928c0,18.15-.593,23.35,2.306,32.24A31.886,31.886,0,0,1,9.8,16.945Zm97.161,40.961c2.9-8.9,2.306-14.231,2.306-32.24H117.2V16.945h12A31.887,31.887,0,0,1,106.962,57.906Z" transform="translate(0 -0.047)" fill="#a0c1f3"/>
      <path id="Path_1922" data-name="Path 1922" d="M181.437,341.007a45,45,0,0,1-26.007,0,37.133,37.133,0,0,1-8.757,20.452H136v25.62h64.867v-25.62H190.193A37.132,37.132,0,0,1,181.437,341.007Z" transform="translate(-98.933 -248.079)" fill="#a0c1f3"/>
    </g>
    <g id="trophy-2" data-name="trophy" transform="translate(612.261 1297.119)">
      <circle id="Ellipse_28-2" data-name="Ellipse 28" cx="2.808" cy="2.808" r="2.808" transform="translate(25.829 17.744)" fill="#a0c1f3"/>
      <path id="Path_1921-2" data-name="Path 1921" d="M55.942,4.66,55.5,3.641H48.289V.047H8.984V3.641H1.769A17.115,17.115,0,0,0,0,11.165,16.508,16.508,0,0,0,14.872,27.592c6.449,10.909,21.118,10.847,27.529,0A16.52,16.52,0,0,0,55.942,4.66ZM22.46,20.6a6.177,6.177,0,1,1,6.177,6.177A6.183,6.183,0,0,1,22.46,20.6ZM4.038,7.01H8.984V10.6h3.267c0,7.478-.244,9.621.95,13.284A13.138,13.138,0,0,1,4.038,7.01ZM44.072,23.887c1.2-3.669.95-5.864.95-13.284h3.267V7.01h4.946A13.139,13.139,0,0,1,44.072,23.887Z" transform="translate(0 -0.047)" fill="#a0c1f3"/>
      <path id="Path_1922-2" data-name="Path 1922" d="M154.722,341.007a18.545,18.545,0,0,1-10.716,0,15.3,15.3,0,0,1-3.608,8.427H136V359.99h26.728V349.434h-4.4A15.3,15.3,0,0,1,154.722,341.007Z" transform="translate(-120.727 -302.717)" fill="#a0c1f3"/>
    </g>
    <g id="trophy-3" data-name="trophy" transform="translate(426.459 1297.119)">
      <circle id="Ellipse_28-3" data-name="Ellipse 28" cx="2.808" cy="2.808" r="2.808" transform="translate(25.829 17.744)" fill="#a0c1f3"/>
      <path id="Path_1921-3" data-name="Path 1921" d="M55.942,4.66,55.5,3.641H48.289V.047H8.984V3.641H1.769A17.115,17.115,0,0,0,0,11.165,16.508,16.508,0,0,0,14.872,27.592c6.449,10.909,21.118,10.847,27.529,0A16.52,16.52,0,0,0,55.942,4.66ZM22.46,20.6a6.177,6.177,0,1,1,6.177,6.177A6.183,6.183,0,0,1,22.46,20.6ZM4.038,7.01H8.984V10.6h3.267c0,7.478-.244,9.621.95,13.284A13.138,13.138,0,0,1,4.038,7.01ZM44.072,23.887c1.2-3.669.95-5.864.95-13.284h3.267V7.01h4.946A13.139,13.139,0,0,1,44.072,23.887Z" transform="translate(0 -0.047)" fill="#a0c1f3"/>
      <path id="Path_1922-3" data-name="Path 1922" d="M154.722,341.007a18.545,18.545,0,0,1-10.716,0,15.3,15.3,0,0,1-3.608,8.427H136V359.99h26.728V349.434h-4.4A15.3,15.3,0,0,1,154.722,341.007Z" transform="translate(-120.727 -302.717)" fill="#a0c1f3"/>
    </g>
  </g>
</svg>
