<svg id="searching" xmlns="http://www.w3.org/2000/svg" width="14" height="14" viewBox="0 0 14 14">
  <g id="Group_398" data-name="Group 398" transform="translate(0)">
    <path id="Path_1457" data-name="Path 1457" d="M1.761,1.761a6.011,6.011,0,0,1,10.261,4.25,5.966,5.966,0,0,1-1.48,3.95L13.881,13.3a.411.411,0,1,1-.581.581L9.962,10.542A6.011,6.011,0,0,1,0,6.011,5.971,5.971,0,0,1,1.761,1.761Zm.581,7.92a5.187,5.187,0,1,0,0-7.339A5.2,5.2,0,0,0,2.342,9.681Z" transform="translate(-0.001 0)" fill="#c2ccd6"/>
  </g>
</svg>
