<svg id="sort-arrows-couple-pointing-up-and-down" xmlns="http://www.w3.org/2000/svg" width="6.964" height="9.576" viewBox="0 0 6.964 9.576">
  <g id="Group_366" data-name="Group 366" transform="translate(0)">
    <path id="Path_1455" data-name="Path 1455" d="M55.253,3.917h6.093a.433.433,0,0,0,.306-.741L58.606.129a.427.427,0,0,0-.612,0L54.947,3.176a.435.435,0,0,0,.306.741Z" transform="translate(-54.818 0)" fill="#131023" opacity="0.6"/>
    <path id="Path_1456" data-name="Path 1456" d="M61.347,237.549H55.253a.433.433,0,0,0-.306.741l3.047,3.047a.427.427,0,0,0,.612,0l3.047-3.047a.435.435,0,0,0-.306-.741Z" transform="translate(-54.818 -231.891)" fill="#5183bf"/>
  </g>
</svg>
