<svg xmlns="http://www.w3.org/2000/svg" width="20.597" height="19.126" viewBox="0 0 20.597 19.126">
  <path id="Icon_ionic-ios-star-outline" data-name="Icon ionic-ios-star-outline" d="M22.065,10H15.3L13.247,3.862a.745.745,0,0,0-1.4,0L9.795,10H2.986a.738.738,0,0,0-.736.736.541.541,0,0,0,.014.124.707.707,0,0,0,.308.52L8.13,15.292,6,21.494a.738.738,0,0,0,.253.828.711.711,0,0,0,.414.179.9.9,0,0,0,.46-.166l5.425-3.867,5.425,3.867a.862.862,0,0,0,.46.166.66.66,0,0,0,.409-.179.729.729,0,0,0,.253-.828l-2.133-6.2,5.512-3.954.133-.115a.771.771,0,0,0,.239-.492A.779.779,0,0,0,22.065,10Zm-5.848,4.253a1.291,1.291,0,0,0-.469,1.462l1.384,4.032a.185.185,0,0,1-.28.211l-3.559-2.538a1.285,1.285,0,0,0-.749-.239,1.261,1.261,0,0,0-.745.239L8.241,19.949a.184.184,0,0,1-.28-.211l1.384-4.032a1.3,1.3,0,0,0-.474-1.471L5.146,11.609a.185.185,0,0,1,.106-.336H9.79a1.286,1.286,0,0,0,1.218-.878L12.369,6.34a.185.185,0,0,1,.349,0L14.079,10.4a1.286,1.286,0,0,0,1.218.878h4.473a.182.182,0,0,1,.106.331Z" transform="translate(-2.25 -3.375)" opacity="0.6"/>
</svg>
