<svg id="Charts_Area_charts_Single-01-small" data-name="Charts/Area charts/Single-01-small" xmlns="http://www.w3.org/2000/svg" xmlns:xlink="http://www.w3.org/1999/xlink" width="380.834" height="105.293" viewBox="0 0 380.834 105.293">
  <defs>
    <linearGradient id="linear-gradient" x1="0.5" x2="0.5" y2="1.066" gradientUnits="objectBoundingBox">
      <stop offset="0" stop-color="#5fc7a2"/>
      <stop offset="1" stop-color="#fff"/>
    </linearGradient>
  </defs>
  <g id="Area_chart_01" data-name="Area chart 01">
    <path id="Line_1" d="M380.834,3.188s-26.425,35.073-54.4,35.073c-26.425,0-26.425-14.879-54.4-14.879-26.425,0-26.425,24.445-54.4,24.445C191.194,47.826,191.194,0,163.215,0c-26.425,0-26.425,73.334-54.4,73.334-26.425,0-26.425-29.759-54.4-29.759C27.98,43.575,0,69.083,0,69.083v34.807H380.834Z" transform="translate(0 1.404)" opacity="0.3" fill="url(#linear-gradient)"/>
    <path id="Line_1-2" data-name="Line_1" d="M217.393,75.811c12.481,0,17.959-8.546,27.7-34.811l1.959-5.291c8.97-23.912,14.917-32.9,24.118-32.9,9.013,0,14.1,3.165,22.74,12.546l1.371,1.5c10.375,11.431,16.786,15.574,29.667,15.574q2.248,0,4.549-.224c11.021-1.065,22.482-5.769,33.968-12.932a136.629,136.629,0,0,0,12.546-8.857c1-.792,1.915-1.542,2.744-2.24l2.078-1.806L376.62,4.9l-1.2,1.056c-.992.854-2.143,1.806-3.437,2.833a132.741,132.741,0,0,1-12.182,8.6c-10.8,6.738-21.48,11.12-31.135,12.053q-1.895.183-3.717.184c-9.646,0-15.1-3.168-23.669-12.32l-3.8-4.136C288.428,3.5,282.467,0,271.171,0c-13.389,0-19.306,9.095-29.413,36.329l-2.392,6.441C231.04,64.762,225.535,73,217.393,73c-9.628,0-15.349-5.734-24.517-21.791l-2.324-4.09c-9.309-16.153-15.064-21.73-26.937-21.73-11.947,0-18.379,3.03-27.718,11.183l-4.2,3.743c-8.048,7.032-13.044,9.408-21.864,9.408-10.315,0-15.748-1.617-24.569-6.371L83.521,42.4c-9.983-5.5-16.039-7.486-27.463-7.486-13.239,0-26.421,6.807-39.338,18.1A132.05,132.05,0,0,0,4.577,65.151L3.119,66.836q-.347.408-.675.8L.462,70.084l-.462.6,4.56,1.1,1.15-1.466,1.212-1.478Q7.886,67.684,9.01,66.4A129.131,129.131,0,0,1,20.875,54.54C32.926,44.008,45.1,37.722,56.058,37.722c9.413,0,14.439,1.52,22.889,6.08l1.7.929c10.366,5.71,16.843,7.8,29.191,7.8,11.428,0,17.453-3.055,26.91-11.473l1.5-1.353C147.764,31.1,153.22,28.2,163.615,28.2c8.51,0,13.8,5.191,22.234,19.8l2.9,5.092C198.432,69.89,204.624,75.811,217.393,75.811Z" transform="translate(380.834 75.811) rotate(180)" fill="#5fc7a2"/>
  </g>
</svg>
