<svg xmlns="http://www.w3.org/2000/svg" width="28" height="28" viewBox="0 0 28 28">
  <path id="telegram" d="M14,28A14,14,0,0,1,4.1,4.1,14,14,0,0,1,23.9,23.9,13.908,13.908,0,0,1,14,28Zm.239-11.3h0l2.691,1.983a.907.907,0,0,0,.433.135c.27,0,.453-.2.542-.592l1.767-8.331a.828.828,0,0,0-.1-.723A.47.47,0,0,0,19.2,9a.768.768,0,0,0-.269.053l-10.385,4c-.351.137-.549.316-.543.491.005.149.159.281.423.364l2.655.831,6.168-3.884a.55.55,0,0,1,.288-.1c.064,0,.11.021.124.057s-.011.095-.075.152L12.594,15.47,12.4,18.212a.677.677,0,0,0,.541-.264l1.3-1.249Z" fill="#fff"/>
</svg>
