<svg xmlns="http://www.w3.org/2000/svg" width="28" height="28" viewBox="0 0 28 28">
  <g id="telegram-active" transform="translate(445 8734)">
    <g id="Ellipse_15" data-name="Ellipse 15" transform="translate(-445 -8734)" fill="none" stroke="#fff" stroke-width="1">
      <circle cx="14" cy="14" r="14" stroke="none"/>
      <circle cx="14" cy="14" r="13.5" fill="none"/>
    </g>
    <path id="Icon_awesome-telegram-plane" data-name="Icon awesome-telegram-plane" d="M11.674,5.422,9.908,13.753c-.133.588-.481.734-.975.457L6.241,12.227l-1.3,1.249a.676.676,0,0,1-.541.264L4.595,11,9.584,6.491c.217-.193-.047-.3-.337-.107L3.079,10.267.424,9.436c-.578-.18-.588-.578.12-.855l10.385-4c.481-.18.9.107.745.841Z" transform="translate(-437.808 -8729.528)" fill="#fff"/>
  </g>
</svg>
