<svg xmlns="http://www.w3.org/2000/svg" width="60" height="60" viewBox="0 0 60 60">
  <g id="transfer" transform="translate(-12794 544)">
    <g id="Group_7" data-name="Group 7" transform="translate(12693 -1589)">
      <g id="logo" transform="translate(12 49)">
        <circle id="Ellipse_1" data-name="Ellipse 1" cx="30" cy="30" r="30" transform="translate(89 996)"/>
      </g>
      <g id="transfer-2" data-name="transfer" transform="translate(107.525 1053.525)">
        <path id="Path_13" data-name="Path 13" d="M12.478,16.674A.978.978,0,0,1,11.5,15.7V14.227a.978.978,0,1,1,1.956,0V15.7A.978.978,0,0,1,12.478,16.674Z" transform="translate(10.997 12.669)" fill="#fff"/>
        <path id="Path_14" data-name="Path 14" d="M14.4,19.738H10.978a.978.978,0,1,1,0-1.956H14.4a1.467,1.467,0,0,0,0-2.934h-.978a3.423,3.423,0,1,1,0-6.847h3.423a.978.978,0,1,1,0,1.956H13.423a1.467,1.467,0,1,0,0,2.934H14.4a3.423,3.423,0,1,1,0,6.847Z" transform="translate(9.563 7.65)" fill="#fff"/>
        <path id="Path_15" data-name="Path 15" d="M12.478,10.425a.978.978,0,0,1-.978-.978V7.978a.978.978,0,1,1,1.956,0V9.447A.978.978,0,0,1,12.478,10.425Z" transform="translate(10.997 6.694)" fill="#fff"/>
        <path id="Path_16" data-name="Path 16" d="M17.738,28.475A11.738,11.738,0,1,1,29.475,16.738,11.749,11.749,0,0,1,17.738,28.475Zm0-21.519a9.781,9.781,0,1,0,9.781,9.781A9.792,9.792,0,0,0,17.738,6.956Z" transform="translate(5.738 4.781)" fill="#fff"/>
        <path id="Path_17" data-name="Path 17" d="M12.478,33a.978.978,0,1,1,0-1.956A19.585,19.585,0,0,0,32.041,11.478a.978.978,0,1,1,1.956,0A21.544,21.544,0,0,1,12.478,33Z" transform="translate(10.997 10.041)" fill="#fff"/>
        <path id="Path_18" data-name="Path 18" d="M38.061,15.748a.982.982,0,0,1-.925-.657A19.542,19.542,0,0,0,18.675,1.956,19.068,19.068,0,0,0,6.61,6.18.978.978,0,1,1,5.386,4.656,20.994,20.994,0,0,1,18.675,0,21.505,21.505,0,0,1,38.987,14.449a.98.98,0,0,1-.6,1.246A1.021,1.021,0,0,1,38.061,15.748Z" transform="translate(4.8 0)" fill="#fff"/>
        <path id="Path_19" data-name="Path 19" d="M15.672,37.426a.993.993,0,0,1-.325-.055A21.5,21.5,0,0,1,1,17.1,21.156,21.156,0,0,1,4.733,5.044a.977.977,0,1,1,1.61,1.107A19.232,19.232,0,0,0,2.956,17.1,19.533,19.533,0,0,0,16,35.525a.979.979,0,0,1-.325,1.9Z" transform="translate(0.956 4.418)" fill="#fff"/>
        <path id="Path_20" data-name="Path 20" d="M15.891,28.781a.982.982,0,0,1-.693-.286l-3.913-3.913a.979.979,0,0,1,0-1.383L15.2,19.287a.978.978,0,0,1,1.383,1.383l-3.22,3.22,3.22,3.22a.979.979,0,0,1,0,1.383A.969.969,0,0,1,15.891,28.781Z" transform="translate(10.519 18.17)" fill="#fff"/>
        <path id="Path_21" data-name="Path 21" d="M8.165,11.725A.979.979,0,0,1,7.221,11L5.955,6.277,1.23,7.543a.978.978,0,1,1-.5-1.89L6.395,4.135a.984.984,0,0,1,1.2.691L9.11,10.493a.978.978,0,0,1-.691,1.2,1.044,1.044,0,0,1-.254.033Z" transform="translate(0 3.925)" fill="#fff"/>
        <path id="Path_22" data-name="Path 22" d="M24.962,12.039a.966.966,0,0,1-.489-.131L19.391,8.974a.978.978,0,0,1,.978-1.694L24.6,9.725,27.05,5.489a.978.978,0,1,1,1.694.978L25.81,11.55a.981.981,0,0,1-.847.489Z" transform="translate(18.075 4.781)" fill="#fff"/>
      </g>
    </g>
  </g>
</svg>
