<svg xmlns="http://www.w3.org/2000/svg" width="28" height="28" viewBox="0 0 28 28">
  <g id="twitter-active" transform="translate(407 8734)">
    <g id="Ellipse_16" data-name="Ellipse 16" transform="translate(-407 -8734)" fill="none" stroke="#fff" stroke-width="1">
      <circle cx="14" cy="14" r="14" stroke="none"/>
      <circle cx="14" cy="14" r="13.5" fill="none"/>
    </g>
    <path id="Icon_awesome-twitter" data-name="Icon awesome-twitter" d="M10.207,5.683c.007.1.007.2.007.3A6.588,6.588,0,0,1,3.58,12.62,6.589,6.589,0,0,1,0,11.574a4.823,4.823,0,0,0,.563.029,4.669,4.669,0,0,0,2.895-1,2.336,2.336,0,0,1-2.18-1.617,2.94,2.94,0,0,0,.44.036,2.466,2.466,0,0,0,.614-.079A2.332,2.332,0,0,1,.462,6.658V6.629a2.348,2.348,0,0,0,1.054.3A2.335,2.335,0,0,1,.794,3.807,6.627,6.627,0,0,0,5.6,6.246a2.632,2.632,0,0,1-.058-.534,2.334,2.334,0,0,1,4.035-1.6,4.59,4.59,0,0,0,1.48-.563,2.325,2.325,0,0,1-1.025,1.285,4.674,4.674,0,0,0,1.343-.361,5.012,5.012,0,0,1-1.169,1.205Z" transform="translate(-398.288 -8728.381)" fill="#fff"/>
  </g>
</svg>
