<svg xmlns="http://www.w3.org/2000/svg" width="28" height="28" viewBox="0 0 28 28">
  <path id="twitter" d="M14,28A14,14,0,0,1,4.1,4.1,14,14,0,0,1,23.9,23.9,13.908,13.908,0,0,1,14,28ZM8,17.193H8a6.638,6.638,0,0,0,10.214-5.588c0-.1,0-.2-.007-.3A4.991,4.991,0,0,0,19.376,10.1a4.669,4.669,0,0,1-1.343.361,2.321,2.321,0,0,0,1.025-1.285,4.605,4.605,0,0,1-1.48.563,2.334,2.334,0,0,0-4.036,1.595,2.65,2.65,0,0,0,.059.535,6.641,6.641,0,0,1-4.808-2.44,2.335,2.335,0,0,0,.722,3.118,2.35,2.35,0,0,1-1.054-.3v.029a2.342,2.342,0,0,0,1.869,2.289,2.48,2.48,0,0,1-.613.079,2.943,2.943,0,0,1-.441-.036,2.337,2.337,0,0,0,2.181,1.616,4.651,4.651,0,0,1-2.9,1A4.769,4.769,0,0,1,8,17.193Z" fill="#fff"/>
</svg>
