<svg xmlns="http://www.w3.org/2000/svg" width="7.133" height="9.808" viewBox="0 0 7.133 9.808">
  <g id="sort-arrows-couple-pointing-up-and-down" opacity="0.6">
    <g id="Group_366" data-name="Group 366" transform="translate(0)">
      <path id="Path_1455" data-name="Path 1455" d="M55.264,4.012h6.242a.443.443,0,0,0,.313-.759L58.7.132a.437.437,0,0,0-.627,0L54.95,3.253a.446.446,0,0,0,.314.759Z" transform="translate(-54.818 0)" fill="#131023"/>
      <path id="Path_1456" data-name="Path 1456" d="M61.505,237.549H55.264a.443.443,0,0,0-.314.759l3.121,3.121a.437.437,0,0,0,.627,0l3.121-3.121a.446.446,0,0,0-.313-.759Z" transform="translate(-54.818 -231.753)" fill="#131023"/>
    </g>
  </g>
</svg>
