<svg xmlns="http://www.w3.org/2000/svg" width="32" height="32" viewBox="0 0 32 32">
  <path id="usdc" d="M16,32A16,16,0,1,1,32,16,16,16,0,0,1,16,32Zm-.25-4.5A11.75,11.75,0,1,0,4,15.75,11.75,11.75,0,0,0,15.75,27.5Zm-.7-16.11v-.74a.705.705,0,0,1,1.41,0v.69a2.65,2.65,0,0,1,2.38,2,.42.42,0,0,1-.31.5h-.47a.8.8,0,0,1-.72-.46,1.64,1.64,0,0,0-1.59-.81c-1,0-1.6.62-1.6,1.18s.47.89,1.47,1.14l1,.22c1.73.37,2.46,1.1,2.46,2.37a2.62,2.62,0,0,1-2.59,2.58v.85a.7.7,0,0,1-1.41,0v-.84a2.73,2.73,0,0,1-2.61-2.08.35.35,0,0,1,.28-.41h.59a.68.68,0,0,1,.61.39,1.9,1.9,0,0,0,1.8.91c1,0,1.77-.6,1.77-1.21s-.44-.97-1.51-1.22l-1.1-.26c-1.57-.33-2.31-1.12-2.31-2.33a2.58,2.58,0,0,1,2.45-2.47ZM6.94,15.75a8.79,8.79,0,0,1,6.03-8.34.42.42,0,0,1,.56.4v.23a.93.93,0,0,1-.58.86,7.36,7.36,0,0,0,0,13.65.94.94,0,0,1,.58.87v.21a.45.45,0,0,1-.45.45h-.14a8.79,8.79,0,0,1-6-8.33Zm17.62,0a8.79,8.79,0,0,1-5.99,8.34.47.47,0,0,1-.62-.44v-.17a1,1,0,0,1,.6-.89,7.36,7.36,0,0,0,0-13.64,1,1,0,0,1-.61-.9V7.9a.469.469,0,0,1,.47-.47h.15a8.79,8.79,0,0,1,6,8.32Z" fill="#5183bf"/>
</svg>
