<svg xmlns="http://www.w3.org/2000/svg" width="21.32" height="20.198" viewBox="0 0 21.32 20.198">
  <path id="wallet-icon" d="M24.7,21.332v1.122A2.251,2.251,0,0,1,22.454,24.7H6.744A2.244,2.244,0,0,1,4.5,22.454V6.744A2.244,2.244,0,0,1,6.744,4.5h15.71A2.251,2.251,0,0,1,24.7,6.744V7.866H14.6a2.244,2.244,0,0,0-2.244,2.244v8.977A2.244,2.244,0,0,0,14.6,21.332ZM14.6,19.088H25.82V10.111H14.6Zm4.488-2.805A1.683,1.683,0,1,1,20.771,14.6,1.681,1.681,0,0,1,19.088,16.282Z" transform="translate(-4.5 -4.5)" fill="#f2f7fb"/>
</svg>
