<svg xmlns="http://www.w3.org/2000/svg" width="48.743" height="29.875" viewBox="0 0 48.743 29.875">
  <path id="WalletConnect" d="M10.119,5.956a20.663,20.663,0,0,1,28.786,0l.957.937a.982.982,0,0,1,0,1.409l-3.273,3.2a.517.517,0,0,1-.72,0l-1.317-1.289a14.415,14.415,0,0,0-20.082,0l-1.41,1.38a.517.517,0,0,1-.72,0l-3.273-3.2a.982.982,0,0,1,0-1.409Zm35.554,6.626,2.913,2.852a.982.982,0,0,1,0,1.409L35.453,29.7a1.033,1.033,0,0,1-1.439,0h0l-9.321-9.126a.258.258,0,0,0-.36,0h0L15.012,29.7a1.033,1.033,0,0,1-1.439,0h0L.439,16.843a.982.982,0,0,1,0-1.409l2.913-2.852a1.033,1.033,0,0,1,1.439,0l9.321,9.126a.259.259,0,0,0,.36,0h0l9.321-9.126a1.033,1.033,0,0,1,1.439,0h0l9.321,9.126a.258.258,0,0,0,.36,0l9.321-9.126A1.033,1.033,0,0,1,45.673,12.582Z" transform="translate(-0.141 -0.118)" fill="#3b99fc"/>
</svg>
